<?xml version="1.0" standalone="no"?>
<!DOCTYPE svg PUBLIC "-//W3C//DTD SVG 20010904//EN"
 "http://www.w3.org/TR/2001/REC-SVG-20010904/DTD/svg10.dtd">
<svg version="1.0" xmlns="http://www.w3.org/2000/svg"
 width="219.000000pt" height="400.000000pt" viewBox="0 0 219.000000 400.000000"
 preserveAspectRatio="xMidYMid meet">

<g transform="translate(0.000000,400.000000) scale(0.100000,-0.100000)"
fill="#000000" stroke="none">
<path d="M0 3635 c0 -225 4 -365 10 -365 5 0 23 17 40 39 56 69 152 79 135 13
-3 -13 1 -47 9 -75 7 -29 17 -70 21 -92 4 -22 18 -74 32 -115 26 -76 26 -121
1 -175 -14 -32 -48 -34 -48 -2 1 12 7 33 15 47 16 29 12 56 -20 160 -30 98
-45 163 -45 199 0 49 -36 51 -73 4 -10 -13 -32 -30 -48 -38 -26 -14 -29 -21
-29 -63 0 -42 14 -100 31 -127 4 -5 10 -26 14 -45 4 -19 20 -55 35 -81 15 -25
31 -56 35 -70 4 -13 13 -31 20 -39 24 -30 85 -138 85 -152 0 -7 8 -21 18 -29
27 -25 44 -49 92 -129 25 -41 59 -90 77 -109 18 -19 33 -39 33 -45 0 -6 13
-24 28 -41 15 -16 31 -38 35 -47 3 -10 11 -18 17 -18 6 0 9 -4 5 -9 -3 -6 4
-19 16 -30 l21 -19 44 33 c24 18 58 36 76 40 40 9 77 43 58 55 -8 5 -3 7 13 8
17 0 24 -5 20 -14 -4 -10 4 -14 25 -14 17 0 32 6 35 13 3 8 16 0 36 -21 40
-43 32 -56 -28 -48 -25 4 -57 7 -71 7 -35 -1 -174 -73 -178 -92 -2 -9 9 -30
23 -45 14 -16 24 -35 22 -44 -2 -10 3 -17 14 -18 11 -1 27 -3 38 -4 10 -1 18
-9 17 -16 -1 -8 8 -19 19 -26 11 -6 22 -12 24 -13 2 -2 -2 -9 -9 -18 -10 -12
-10 -15 2 -15 22 0 78 -30 78 -41 0 -6 -5 -7 -12 -3 -7 4 -24 9 -37 10 -20 3
-22 1 -11 -6 13 -9 13 -11 1 -19 -10 -7 -4 -9 20 -8 26 2 34 -2 33 -15 -1 -10
4 -14 12 -11 8 3 14 9 14 14 0 5 7 9 15 9 8 0 15 -6 15 -14 0 -7 14 -19 32
-27 l31 -13 -27 -9 c-20 -7 -24 -12 -15 -17 20 -13 20 -38 -1 -33 -10 3 -21 0
-24 -6 -4 -7 1 -11 13 -11 12 0 21 -5 21 -11 0 -6 7 -8 16 -5 12 5 15 2 10 -9
-3 -9 4 -24 18 -36 14 -12 22 -27 20 -34 -3 -7 -1 -16 5 -19 6 -4 7 -14 4 -23
-4 -10 -2 -14 4 -10 6 4 18 -2 27 -12 13 -15 14 -20 4 -24 -8 -4 -7 -6 5 -6 9
-1 17 -6 17 -11 0 -6 3 -9 8 -9 22 4 34 -3 28 -16 -3 -8 1 -21 10 -29 9 -9 10
-17 4 -21 -5 -3 -10 -11 -10 -17 0 -7 5 -6 14 1 11 9 20 9 34 2 11 -6 23 -7
27 -3 5 4 5 1 1 -6 -4 -7 -11 -10 -15 -7 -5 2 -8 -7 -8 -20 0 -14 4 -25 9 -25
5 0 6 5 2 11 -4 7 -1 10 6 7 17 -5 26 -30 10 -26 -7 2 -15 -3 -18 -11 -3 -10
0 -12 12 -8 9 4 15 3 12 -2 -3 -5 1 -12 10 -15 10 -4 14 -14 11 -25 -3 -13 1
-21 15 -24 10 -3 24 -19 31 -36 6 -17 17 -31 24 -31 7 0 15 -11 19 -25 3 -14
12 -25 19 -25 6 0 20 -9 30 -20 10 -11 24 -20 30 -20 7 0 28 -11 48 -24 30
-21 36 -22 39 -9 2 10 16 17 36 18 34 3 44 -10 15 -18 -15 -4 -15 -5 -2 -6 9
0 22 6 29 14 11 13 10 18 -5 29 -16 12 -16 13 -1 19 10 4 16 1 16 -9 0 -12 4
-13 20 -4 27 14 22 42 -10 57 -14 7 -19 12 -12 13 26 1 10 15 -17 15 -21 0
-27 -3 -20 -12 7 -8 4 -13 -11 -18 -12 -4 -19 -9 -17 -12 3 -2 14 0 25 6 23
12 48 6 56 -14 4 -11 0 -12 -17 -6 -13 5 -35 7 -50 4 -19 -4 -29 0 -33 11 -3
9 -10 16 -15 16 -18 0 -8 -16 26 -39 35 -24 45 -41 24 -41 -7 0 -20 10 -30 21
-12 15 -24 19 -36 14 -16 -6 -16 -8 5 -18 12 -5 22 -14 22 -19 0 -14 -22 -9
-34 7 -6 9 -21 17 -34 18 -12 0 -22 8 -22 15 0 8 -6 12 -15 8 -8 -3 -15 -1
-15 4 0 6 5 10 10 10 6 0 10 7 10 15 0 17 27 20 50 5 8 -5 13 -10 10 -11 -3 0
-13 -2 -22 -4 -10 -2 -18 2 -18 8 0 5 -3 7 -7 4 -3 -4 3 -16 15 -27 21 -20 21
-20 32 0 8 15 7 26 -6 45 -9 14 -14 28 -10 32 3 3 6 1 6 -5 0 -6 7 -9 15 -6
11 5 14 2 9 -12 -4 -11 -4 -16 0 -12 5 4 20 2 35 -3 24 -8 24 -8 7 5 -10 8
-15 20 -11 25 3 6 9 23 11 38 7 37 12 43 32 36 11 -3 9 0 -5 11 -29 22 -29 36
-1 28 17 -4 20 -2 15 11 -7 17 17 31 48 28 17 -2 17 0 5 8 -19 13 0 14 20 1
11 -7 6 -13 -25 -26 -35 -15 -38 -18 -20 -25 19 -7 19 -8 0 -8 -13 -1 -16 -4
-9 -11 7 -7 24 -3 53 11 24 11 41 23 38 26 -3 2 -14 0 -25 -6 -25 -13 -32 -14
-32 -2 0 13 84 32 88 21 5 -13 32 -13 32 -1 0 5 -6 12 -12 14 -7 3 3 4 22 1
19 -2 29 -2 22 2 -6 3 -10 10 -7 14 3 5 17 4 31 -2 18 -9 27 -9 36 0 9 9 8 12
-7 12 -35 0 -9 9 41 14 31 4 42 2 29 -3 -11 -5 -23 -7 -27 -4 -4 2 -12 -5 -17
-16 -8 -14 -8 -21 2 -24 6 -3 -5 -12 -27 -21 -21 -10 -35 -20 -32 -23 3 -3 0
-13 -7 -21 -10 -13 -9 -14 10 -8 12 4 24 2 28 -4 4 -6 14 -9 23 -6 53 15 84
17 78 7 -4 -6 -16 -11 -27 -11 -10 0 -19 -5 -19 -11 0 -6 6 -9 14 -6 9 4 16
-4 21 -21 8 -33 25 -44 45 -29 12 9 13 9 3 -2 -13 -15 -7 -41 9 -41 6 0 7 8 4
17 -6 15 -4 14 14 -2 14 -13 17 -21 9 -26 -8 -5 -7 -8 2 -12 12 -4 11 -7 -1
-16 -18 -13 -3 -13 25 -1 11 5 14 9 8 9 -22 2 -14 21 8 21 15 0 19 -5 15 -15
-3 -8 0 -15 7 -16 7 0 3 -4 -8 -9 -11 -5 -14 -9 -7 -9 18 -1 15 -19 -5 -25
-10 -3 -1 -3 19 0 33 4 37 2 31 -12 -4 -11 -3 -15 4 -11 17 10 42 -3 37 -18
-3 -7 -15 -16 -27 -20 -21 -6 -22 -6 -2 -14 16 -7 7 -11 -40 -21 -71 -14 -147
-39 -122 -40 9 0 17 -6 17 -14 0 -10 7 -12 22 -8 20 5 21 6 3 12 -16 6 -14 8
13 18 18 6 32 8 32 5 0 -3 8 1 17 8 14 12 16 12 11 -1 -4 -12 1 -15 21 -14 37
3 37 3 21 15 -11 8 -6 9 23 5 33 -4 37 -3 27 9 -8 9 -9 15 -2 15 6 0 18 3 28
7 13 5 16 3 11 -10 -4 -11 -1 -17 9 -17 8 0 12 -5 9 -10 -4 -6 -10 -8 -15 -5
-5 3 -14 -3 -19 -14 -15 -27 -14 -30 9 -24 11 3 20 1 20 -5 0 -6 -8 -13 -18
-15 -13 -4 -11 -5 6 -6 18 -1 22 4 22 30 0 29 2 31 30 27 24 -4 30 -1 30 14 0
11 -3 17 -8 14 -4 -2 -12 7 -19 20 -13 28 -6 32 12 7 10 -14 13 13 14 143 l1
159 -69 32 c-132 63 -221 167 -221 257 0 60 33 138 81 191 35 38 112 79 172
90 l37 7 0 61 c0 36 -5 67 -14 76 -35 41 -48 159 -22 194 12 15 13 9 9 -45 -4
-48 -1 -68 11 -83 14 -18 16 -11 15 93 l-1 112 -20 -25 c-22 -28 -38 -32 -38
-10 0 8 -7 15 -15 15 -20 0 -19 -20 2 -35 16 -12 9 -40 -8 -30 -8 6 -28 -1
-109 -38 -45 -20 -14 -22 34 -2 30 13 36 13 36 1 0 -7 -14 -16 -32 -20 -30 -6
-31 -7 -13 -26 10 -11 26 -18 35 -15 12 4 16 -3 18 -31 2 -20 7 -45 13 -55 10
-20 -4 -28 -16 -8 -4 6 -13 8 -20 5 -7 -2 -18 1 -24 7 -6 6 -11 7 -11 1 0 -6
5 -15 12 -22 9 -9 7 -13 -5 -18 -23 -8 -22 -25 1 -17 11 4 8 -1 -8 -15 -19
-17 -21 -21 -6 -15 13 4 17 3 13 -5 -8 -12 -66 -27 -74 -18 -3 3 5 10 18 16
22 10 22 10 -6 5 -55 -10 -60 -10 -58 1 3 18 -38 4 -45 -15 -6 -17 -22 -31
-35 -31 -5 0 -1 10 7 22 9 12 16 33 16 46 0 20 -3 21 -21 12 -11 -7 -27 -9
-34 -6 -8 3 -17 0 -21 -6 -4 -6 -3 -8 4 -4 5 3 12 0 15 -6 3 -10 7 -10 21 1 9
8 19 11 23 7 11 -11 -6 -19 -40 -19 l-32 0 29 -12 c29 -12 21 -30 -8 -19 -9 3
-16 1 -16 -6 0 -6 -5 -8 -11 -4 -8 4 -8 1 -1 -13 9 -15 8 -20 -4 -20 -7 0 -14
4 -14 9 0 13 -33 9 -53 -6 -10 -8 -27 -12 -37 -9 -18 5 -18 6 -2 32 9 14 19
28 22 31 15 14 75 146 75 164 0 12 9 25 21 30 22 10 62 66 48 66 -4 0 3 11 16
25 13 14 29 25 36 25 6 0 12 12 11 28 0 53 3 62 28 68 14 3 25 10 25 16 0 5
14 26 30 47 19 23 28 44 25 54 -9 21 12 57 29 51 8 -3 19 3 26 15 6 12 17 21
24 21 9 0 12 7 9 18 -2 11 6 32 21 49 30 35 33 55 10 74 -13 10 -17 10 -24 0
-6 -10 -10 -9 -18 5 -10 18 -12 17 -35 -9 -19 -23 -26 -26 -35 -14 -13 16 -89
14 -105 -2 -14 -14 -27 -14 -27 -1 0 6 6 10 14 10 8 0 18 5 21 10 4 6 -7 10
-24 10 -23 0 -31 -5 -31 -17 -1 -17 -31 29 -46 70 -15 39 -32 13 -29 -45 1
-30 -2 -38 -16 -38 -11 0 -19 9 -21 23 -2 12 -9 21 -16 20 -6 -2 -18 -4 -24
-5 -8 -2 -12 6 -11 19 2 19 -2 22 -32 20 -19 -2 -40 -8 -47 -16 -11 -10 -8
-11 15 -6 21 6 27 4 27 -9 0 -9 6 -16 13 -16 6 0 -1 -9 -17 -19 -33 -22 -39
-18 -71 42 -16 31 -17 39 -6 46 9 6 10 10 2 16 -7 4 -19 1 -27 -6 -13 -11 -19
-8 -38 15 l-22 28 -19 -36 c-23 -42 -16 -51 33 -48 32 1 34 0 15 -8 -24 -10
-30 -29 -13 -46 7 -7 4 -16 -10 -29 -18 -16 -24 -17 -41 -7 -16 10 -20 10 -25
-3 -9 -21 -24 -19 -24 5 0 10 9 24 20 30 14 8 20 8 20 0 0 -6 4 -9 9 -6 10 7
2 56 -10 56 -5 0 -9 -7 -9 -15 0 -8 -9 -15 -19 -15 -11 0 -26 -3 -35 -6 -9 -3
-16 -1 -16 5 0 7 8 15 18 18 9 4 24 13 31 21 13 13 11 18 -15 42 -22 19 -31
36 -31 58 0 31 1 31 41 26 23 -3 59 -2 81 3 33 7 41 14 46 38 4 17 7 22 8 12
1 -25 41 -37 114 -35 54 1 65 5 89 30 25 27 25 28 5 29 -17 1 -14 4 10 11 36
12 66 -3 57 -27 -3 -8 7 -15 30 -19 21 -4 36 -13 36 -21 0 -8 5 -17 12 -21 8
-5 10 3 5 28 -4 26 -21 50 -68 94 -35 32 -74 71 -88 85 -15 14 -52 45 -83 68
-56 40 -71 65 -46 73 22 8 119 -54 180 -113 31 -30 44 -37 51 -27 6 9 7 8 3
-5 -4 -12 6 -29 29 -52 38 -39 51 -42 83 -19 20 14 22 14 22 -1 0 -8 12 -21
26 -27 17 -8 24 -18 21 -30 -6 -22 10 -34 45 -32 18 1 25 -3 21 -12 -3 -8 6
-15 24 -19 15 -4 40 -13 55 -21 l28 -15 0 40 c0 38 -19 68 -28 43 -2 -7 -13
-12 -24 -12 -15 0 -18 4 -12 23 9 29 9 30 39 30 l25 0 0 503 0 504 -642 0
-643 0 40 -36 c76 -66 155 -149 161 -168 6 -18 -9 -36 -32 -36 -5 0 -34 20
-63 45 -47 40 -100 75 -115 75 -2 0 0 -15 5 -32 15 -53 12 -90 -8 -86 -10 2
-22 23 -32 58 -9 30 -27 83 -41 118 l-25 62 -397 0 -398 0 0 -365z m1159 120
c25 -12 47 -42 39 -51 -2 -1 -20 13 -40 32 -41 37 -41 41 1 19z m827 -42 c-7
-7 -26 7 -26 19 0 6 6 6 15 -2 9 -7 13 -15 11 -17z m-461 -68 c-6 -79 -6 -81
24 -114 17 -18 31 -38 31 -42 0 -14 -23 -10 -44 6 -23 17 -36 5 -36 -32 0 -12
-8 -29 -17 -39 -17 -17 -18 -14 -23 62 -3 45 -1 82 4 86 5 3 11 35 13 70 5 81
7 84 32 84 21 0 21 -3 16 -81z m-795 45 c0 -5 -5 -10 -11 -10 -5 0 -7 5 -4 10
3 6 8 10 11 10 2 0 4 -4 4 -10z m545 -30 c0 -33 -32 -40 -44 -8 -5 15 -5 26 3
30 21 14 41 3 41 -22z m-280 -157 c10 -43 24 -104 31 -135 14 -61 11 -88 -12
-88 -15 0 -16 4 -39 130 -8 47 -19 101 -25 119 -7 26 -7 37 3 43 22 14 25 9
42 -69z m-225 -93 c0 -5 -7 -10 -15 -10 -8 0 -15 5 -15 10 0 6 7 10 15 10 8 0
15 -4 15 -10z m981 -20 c23 -13 55 -70 39 -70 -16 0 -100 59 -100 70 0 13 36
13 61 0z m-190 -52 c38 -42 52 -88 26 -88 -7 0 -35 25 -62 56 -38 44 -45 58
-34 65 23 14 29 11 70 -33z m-411 -8 c0 -5 -4 -10 -10 -10 -5 0 -10 5 -10 10
0 6 5 10 10 10 6 0 10 -4 10 -10z m-366 -35 c-4 -8 -8 -15 -10 -15 -2 0 -4 7
-4 15 0 8 4 15 10 15 5 0 7 -7 4 -15z m1269 -81 c46 -34 65 -59 54 -70 -7 -7
-177 75 -177 85 0 35 67 26 123 -15z m-1287 -43 c-5 -7 -13 -7 -26 2 -18 11
-19 12 -2 18 20 8 37 -5 28 -20z m304 -33 c1 -13 7 -77 15 -143 12 -104 12
-122 -1 -131 -21 -17 -17 -23 14 -21 22 2 30 -5 46 -37 22 -45 13 -71 -25 -71
-18 0 -33 15 -64 61 -22 33 -50 71 -62 84 -13 13 -23 27 -23 32 0 18 -16 6
-28 -22 -8 -16 -18 -30 -23 -30 -12 0 -11 17 1 25 6 4 8 11 4 16 -4 6 -13 4
-25 -7 -10 -9 -25 -14 -34 -10 -9 3 -23 -3 -32 -14 -10 -11 -23 -20 -29 -20
-7 0 -14 -6 -17 -12 -2 -7 -8 -10 -12 -6 -4 4 -3 14 4 21 13 17 6 43 -15 51
-8 3 -14 12 -14 20 0 18 27 29 34 13 3 -8 10 -6 20 7 8 10 13 23 10 28 -8 13
26 48 45 48 11 -1 7 -7 -12 -21 -26 -20 -26 -22 -10 -34 11 -8 26 -10 45 -4
18 5 28 4 28 -3 0 -5 7 -7 16 -4 12 4 15 2 10 -9 -4 -11 1 -15 19 -15 25 0 25
1 25 90 0 50 4 90 9 90 16 0 20 -14 22 -87 2 -69 23 -143 36 -129 7 7 6 82 -3
194 -6 62 -4 72 10 72 10 0 16 -9 16 -22z m-320 -94 c0 -8 10 -14 23 -14 20 0
20 -2 -8 -19 -16 -10 -36 -16 -42 -13 -16 5 -17 44 -1 60 13 13 28 7 28 -14z
m80 -24 c0 -3 -10 -11 -22 -19 -21 -13 -22 -13 -9 2 11 14 11 20 0 34 -13 15
-12 15 9 2 12 -8 22 -16 22 -19z m1268 -23 c4 -19 -6 -21 -27 -8 -16 10 -5 34
12 28 7 -2 13 -11 15 -20z m-1223 -17 c-3 -5 -11 -10 -16 -10 -6 0 -7 5 -4 10
3 6 11 10 16 10 6 0 7 -4 4 -10z m831 -27 c-9 -9 -46 -11 -51 -2 -12 18 5 28
30 17 14 -6 23 -13 21 -15z m-526 -108 c-9 -11 -17 -12 -31 -4 -10 5 -19 14
-19 19 0 14 23 18 43 8 14 -7 16 -12 7 -23z m79 21 c15 -17 4 -46 -18 -46 -12
0 -16 8 -15 28 3 34 2 32 13 32 5 0 14 -6 20 -14z m71 -18 c0 -7 -7 -21 -14
-31 -12 -15 -15 -15 -26 -2 -10 12 -10 15 4 15 9 0 16 7 16 15 0 8 5 15 10 15
6 0 10 -6 10 -12z m-480 -55 c0 -9 7 -25 17 -35 14 -16 14 -18 1 -18 -20 0
-33 19 -37 54 -2 18 1 26 8 22 6 -4 11 -14 11 -23z m-50 2 c0 -9 -9 -15 -25
-15 -24 0 -32 10 -18 23 12 13 43 7 43 -8z m337 -111 c8 3 19 6 24 6 5 0 9 7
9 15 0 8 6 15 14 15 8 0 16 6 19 13 4 10 7 10 18 0 10 -10 10 -16 1 -25 -19
-19 -14 -29 13 -22 14 3 25 2 25 -4 0 -12 -24 -22 -56 -22 -13 0 -24 -4 -24
-8 0 -13 122 -65 129 -55 8 12 53 14 46 2 -4 -5 -14 -9 -23 -10 -9 0 15 -15
53 -33 39 -19 87 -49 107 -68 21 -20 40 -33 43 -30 3 3 5 -4 5 -16 0 -12 5
-22 10 -22 6 0 10 -8 10 -17 1 -17 1 -17 11 0 14 23 31 11 24 -16 -5 -20 -5
-20 5 -4 11 18 12 18 26 0 13 -17 14 -17 20 5 3 12 11 22 16 22 6 0 7 8 3 18
-5 13 -3 14 6 5 6 -6 18 -9 25 -6 8 3 14 -1 14 -11 0 -12 6 -15 25 -10 18 4
25 2 25 -9 0 -19 -38 -29 -61 -16 -23 12 -29 11 -29 -4 0 -19 -34 -37 -51 -26
-28 18 -49 9 -68 -29 -11 -21 -27 -44 -35 -51 -29 -24 -19 18 14 59 34 43 36
50 15 50 -8 0 -15 -5 -15 -11 0 -16 -52 -6 -64 13 -8 13 -6 22 7 36 17 19 17
21 -14 51 -34 35 -82 61 -144 81 -22 7 -75 30 -119 51 -74 37 -80 38 -93 22
-13 -17 -13 -16 -7 6 l6 24 -73 -7 c-97 -10 -111 -9 -119 5 -6 8 -9 8 -14 0
-4 -6 -2 -11 5 -11 8 0 6 -6 -4 -18 -24 -27 -21 -32 18 -32 19 0 35 -4 35 -10
0 -5 -5 -10 -10 -10 -6 0 -15 -11 -20 -25 -5 -14 -17 -25 -27 -24 -11 0 -13 3
-5 6 17 7 15 23 -3 23 -8 0 -15 6 -15 13 -1 12 -45 67 -55 67 -11 0 -4 -31 11
-56 14 -20 15 -30 6 -49 -7 -14 -8 -25 -3 -25 5 0 11 7 15 15 3 8 10 15 16 15
17 0 11 -25 -10 -38 -20 -12 -28 -42 -12 -42 5 0 8 -16 8 -35 -1 -27 -5 -35
-19 -35 -10 0 -25 7 -33 15 -14 13 -14 15 0 15 22 0 27 15 15 46 -8 23 -12 25
-19 14 -8 -13 -10 -12 -10 3 0 14 -5 16 -27 11 l-28 -7 22 24 c28 31 40 89 18
89 -8 0 -15 9 -15 20 0 26 3 36 12 33 4 -2 5 4 2 12 -5 11 -2 13 10 9 20 -8
20 -3 2 41 -15 35 -31 45 -38 23 -7 -20 -26 1 -21 23 5 16 11 19 31 14 13 -3
31 -13 39 -20 8 -8 26 -15 41 -16 73 -3 77 -4 74 -22 -3 -18 -2 -18 24 0 27
17 27 17 15 -5 -11 -20 -10 -22 17 -22 21 0 35 8 47 26 16 24 16 27 0 44 -10
11 -15 26 -11 36 5 13 18 4 67 -45 39 -41 66 -60 76 -57z m-450 50 c2 -7 -9
-16 -26 -22 -29 -10 -41 -2 -41 29 0 14 63 7 67 -7z m615 -36 c-7 -7 -12 -8
-12 -2 0 14 12 26 19 19 2 -3 -1 -11 -7 -17z m48 -3 c-7 -8 -9 -15 -4 -15 10
0 -28 -29 -39 -30 -11 0 36 59 47 59 5 1 3 -6 -4 -14z m-590 -4 c0 -5 -7 -14
-15 -21 -12 -10 -15 -10 -15 2 0 8 3 18 7 21 9 10 23 9 23 -2z m1025 -31 c-3
-5 -10 -10 -16 -10 -5 0 -9 5 -9 10 0 6 7 10 16 10 8 0 12 -4 9 -10z m115 -5
c0 -8 -4 -15 -10 -15 -5 0 -10 7 -10 15 0 8 5 15 10 15 6 0 10 -7 10 -15z m93
-22 c3 7 6 0 6 -15 1 -36 -25 -37 -33 -2 -6 21 -9 24 -21 14 -12 -10 -15 -9
-15 7 0 33 14 36 37 9 14 -17 23 -21 26 -13z m-226 -18 c-2 -5 -10 -10 -17
-10 -7 0 -15 5 -17 10 -2 6 6 11 17 11 11 0 19 -5 17 -11z m102 -2 c3 -2 -3
-11 -13 -21 -16 -16 -18 -16 -27 1 -6 9 -17 17 -24 17 -8 0 -15 5 -15 10 0 10
68 4 79 -7z m-902 -35 c-3 -7 -5 -2 -5 12 0 14 2 19 5 13 2 -7 2 -19 0 -25z
m93 13 c0 -5 -7 -11 -15 -15 -15 -5 -20 5 -8 17 9 10 23 9 23 -2z m630 -6 c5
3 12 0 15 -6 5 -7 1 -10 -10 -7 -10 1 -20 9 -21 16 -1 7 0 8 3 2 2 -5 9 -8 13
-5z m-60 -19 c0 -8 8 -17 17 -20 14 -6 14 -8 -5 -22 -28 -19 -42 -11 -38 24 4
33 4 32 16 32 6 0 10 -6 10 -14z m-870 -21 c-7 -9 -15 -13 -17 -11 -7 7 7 26
19 26 6 0 6 -6 -2 -15z m944 0 c3 -8 1 -15 -4 -15 -6 0 -10 7 -10 15 0 8 2 15
4 15 2 0 6 -7 10 -15z m86 -25 c0 -21 -16 -35 -24 -22 -8 13 5 53 15 46 5 -3
9 -14 9 -24z m110 11 c0 -6 -4 -13 -10 -16 -5 -3 -10 1 -10 9 0 9 5 16 10 16
6 0 10 -4 10 -9z m-960 -25 c0 -8 -4 -18 -10 -21 -5 -3 -10 3 -10 14 0 12 5
21 10 21 6 0 10 -6 10 -14z m44 -7 c-8 -14 4 -11 33 8 26 17 26 17 14 -5 -9
-16 -20 -22 -36 -20 -15 2 -30 -4 -39 -17 -8 -11 -18 -17 -21 -13 -4 4 0 14 9
23 9 9 16 23 16 30 0 9 6 12 15 9 8 -4 12 -10 9 -15z m616 1 c0 -5 -2 -10 -4
-10 -3 0 -8 5 -11 10 -3 6 -1 10 4 10 6 0 11 -4 11 -10z m127 -12 c-3 -8 -6
-5 -6 6 -1 11 2 17 5 13 3 -3 4 -12 1 -19z m-38 -10 c-16 -31 -16 -31 -22 -8
-3 11 -1 18 4 14 5 -3 9 0 9 5 0 6 5 11 10 11 7 0 7 -8 -1 -22z m-809 -3 c-7
-8 -17 -12 -22 -9 -6 4 -5 10 3 15 22 14 33 10 19 -6z m970 5 c0 -5 -4 -10
-10 -10 -5 0 -10 5 -10 10 0 6 5 10 10 10 6 0 10 -4 10 -10z m-50 -10 c0 -5
-2 -10 -4 -10 -3 0 -8 5 -11 10 -3 6 -1 10 4 10 6 0 11 -4 11 -10z m-807 -17
c9 -9 -12 -33 -29 -33 -12 0 -12 4 -2 20 14 21 21 24 31 13z m932 -3 c6 -11
-44 -34 -53 -25 -3 3 0 5 6 5 7 0 12 7 12 15 0 17 25 20 35 5z m-1119 -12 c4
-7 4 -10 -1 -6 -4 4 -16 -2 -27 -14 -10 -12 -20 -19 -23 -16 -10 9 6 37 23 41
10 3 18 5 19 6 1 0 5 -5 9 -11z m984 -13 c0 -18 30 -28 46 -14 8 6 14 7 14 2
0 -9 -51 -38 -54 -31 0 2 -7 13 -13 25 -16 27 -17 47 -3 38 6 -3 10 -12 10
-20z m-710 -46 c0 -11 7 -19 15 -19 21 0 19 -13 -5 -28 -16 -10 -26 -9 -54 6
-41 20 -43 25 -15 50 24 23 59 18 59 -9z m267 14 c-3 -24 -16 -43 -27 -43 -5
0 -7 7 -5 15 3 8 7 22 10 30 6 21 25 19 22 -2z m-577 -18 c0 -12 -19 -24 -37
-25 -11 0 -10 34 1 42 13 9 36 -2 36 -17z m353 10 c-3 -9 -8 -14 -10 -11 -3 3
-2 9 2 15 9 16 15 13 8 -4z m165 -22 c-15 -18 -21 -9 -13 18 6 16 9 18 16 8 4
-8 3 -19 -3 -26z m146 23 c22 -11 25 -16 14 -27 -7 -8 -22 -33 -33 -56 -23
-48 -40 -48 -21 0 8 17 11 47 9 65 -6 36 -5 37 31 18z m-268 -26 c0 -11 -3
-20 -7 -20 -11 0 -29 27 -22 33 13 14 29 6 29 -13z m34 10 c0 -5 -4 -10 -10
-10 -5 0 -10 5 -10 10 0 6 5 10 10 10 6 0 10 -4 10 -10z m-226 -24 c9 -14 13
-32 10 -40 -7 -18 -38 -32 -31 -14 2 7 0 21 -5 31 -9 17 -5 47 6 47 2 0 11
-11 20 -24z m876 -1 c0 -7 -11 -12 -25 -12 -27 0 -31 7 -14 24 14 14 39 6 39
-12z m-465 5 c-3 -5 -10 -10 -16 -10 -5 0 -9 5 -9 10 0 6 7 10 16 10 8 0 12
-4 9 -10z m-516 -21 c-22 -14 -33 -10 -19 6 7 8 17 12 22 9 6 -4 5 -10 -3 -15z
m51 -10 c0 -5 -2 -9 -4 -9 -2 0 -13 -3 -23 -7 -15 -6 -16 -4 -6 9 7 8 10 18 6
22 -4 4 0 4 10 0 9 -3 17 -10 17 -15z m750 6 c0 -10 10 -15 30 -15 19 0 30 -5
30 -14 0 -8 3 -16 8 -19 4 -2 1 -2 -6 0 -8 1 -32 3 -55 4 -23 0 -36 3 -30 6 8
3 11 14 7 29 -4 15 -2 24 5 24 6 0 11 -7 11 -15z m114 0 c-6 -16 -24 -21 -24
-7 0 11 11 22 21 22 5 0 6 -7 3 -15z m-776 -44 c-14 -22 -28 -28 -28 -11 0 19
24 50 33 41 5 -5 3 -18 -5 -30z m192 19 c0 -11 -7 -20 -15 -20 -17 0 -18 2 -9
24 9 23 24 20 24 -4z m380 9 c0 -6 -7 -17 -15 -25 -8 -9 -15 -24 -15 -35 0
-18 -11 -25 -22 -13 -8 7 33 84 44 84 4 0 8 -5 8 -11z m50 7 c0 -2 -7 -7 -16
-10 -8 -3 -12 -2 -9 4 6 10 25 14 25 6z m-528 -36 c-2 -19 0 -21 13 -10 10 9
15 9 15 1 0 -6 -3 -11 -8 -11 -4 0 -12 -10 -17 -22 -7 -16 -19 -23 -37 -23
-16 -1 -28 3 -28 7 0 4 -5 8 -11 8 -6 0 -8 -8 -5 -17 3 -10 2 -24 -3 -32 -5
-8 -9 4 -9 33 -1 51 1 52 42 31 28 -15 51 -12 40 6 -3 5 -10 6 -16 3 -8 -5 -9
-1 -5 10 4 10 7 24 7 33 0 8 6 13 13 10 6 -2 11 -14 9 -27z m722 7 c-5 -14
-66 -17 -61 -2 4 10 48 24 59 18 4 -2 5 -9 2 -16z m-344 -7 c0 -5 -5 -10 -11
-10 -5 0 -7 5 -4 10 3 6 8 10 11 10 2 0 4 -4 4 -10z m-220 -35 c16 -8 44 -16
63 -17 19 -2 33 -6 30 -10 -2 -5 5 -8 16 -8 17 0 61 -18 196 -80 22 -11 52
-24 68 -29 34 -13 44 -36 25 -59 -21 -24 -89 -157 -157 -307 -33 -71 -66 -134
-74 -139 -21 -13 -67 8 -67 31 0 15 1 15 13 -1 27 -38 95 2 71 42 -6 9 -21 18
-33 20 -18 3 -20 6 -10 18 16 20 -4 64 -29 64 -33 0 -58 -49 -33 -64 5 -3 8 2
7 11 0 11 7 18 19 19 14 1 21 -5 22 -18 1 -12 -2 -16 -10 -11 -9 5 -9 3 0 -8
20 -24 -6 -55 -34 -41 -15 9 -25 8 -39 -3 -11 -8 -25 -15 -31 -15 -16 0 -44
42 -46 68 -1 22 -21 22 -55 1 -24 -15 -47 -7 -63 23 l-12 23 25 -22 c13 -13
31 -23 39 -22 8 0 4 4 -8 9 -13 5 -23 16 -23 25 0 13 3 13 20 3 11 -7 20 -16
20 -21 0 -4 5 -5 10 -2 16 10 11 53 -7 64 -12 6 -26 5 -43 -3 -46 -24 -111
-29 -131 -10 -24 22 -24 36 1 102 16 43 18 57 8 75 -10 20 -10 21 5 8 14 -11
18 -11 23 5 3 11 15 36 26 57 l19 37 -20 0 c-12 0 -21 5 -21 11 0 6 10 9 23 7
18 -2 30 11 71 82 62 109 70 114 126 85z m-281 -20 c0 -11 -3 -14 -6 -7 -2 6
-11 12 -18 12 -8 0 -16 4 -19 9 -3 5 5 8 19 7 18 -1 25 -6 24 -21z m165 4 c-3
-5 -10 -7 -15 -3 -5 3 -7 10 -3 15 3 5 10 7 15 3 5 -3 7 -10 3 -15z m581 -19
c-3 -5 -18 -10 -33 -9 l-27 1 25 8 c35 11 42 11 35 0z m-795 -12 c0 -9 3 -8
10 2 5 8 12 11 15 8 9 -9 -2 -26 -23 -37 -14 -7 -17 -4 -18 15 -1 13 2 24 7
24 5 0 9 -6 9 -12z m637 -29 c-15 -23 -31 -8 -22 21 5 16 10 19 20 10 11 -9
12 -16 2 -31z m523 21 c0 -5 -5 -10 -11 -10 -5 0 -7 5 -4 10 3 6 8 10 11 10 2
0 4 -4 4 -10z m-1039 -27 c-8 -15 -10 -15 -11 -2 0 17 10 32 18 25 2 -3 -1
-13 -7 -23z m1004 17 c3 -5 -1 -10 -9 -10 -9 0 -16 5 -16 10 0 6 4 10 9 10 6
0 13 -4 16 -10z m-445 -10 c0 -5 -8 -10 -17 -10 -15 0 -16 2 -3 10 19 12 20
12 20 0z m-858 -32 c-7 -7 -12 -8 -12 -2 0 14 12 26 19 19 2 -3 -1 -11 -7 -17z
m348 18 c0 -3 -4 -8 -10 -11 -5 -3 -10 -1 -10 4 0 6 5 11 10 11 6 0 10 -2 10
-4z m-164 -83 c-3 -3 -8 2 -12 11 -3 9 -12 16 -19 16 -8 0 -17 5 -21 12 -4 7
-3 8 4 4 7 -4 12 -2 12 5 0 6 10 0 21 -15 12 -15 19 -30 15 -33z m39 37 c3 -5
1 -10 -4 -10 -6 0 -11 5 -11 10 0 6 2 10 4 10 3 0 8 -4 11 -10z m-72 -53 c-7
-11 -33 13 -33 29 0 11 5 10 18 -3 11 -10 17 -22 15 -26z m-63 13 c0 -5 -2
-10 -4 -10 -3 0 -8 5 -11 10 -3 6 -1 10 4 10 6 0 11 -4 11 -10z m1230 -20 c0
-5 -4 -10 -10 -10 -5 0 -10 5 -10 10 0 6 5 10 10 10 6 0 10 -4 10 -10z m-1200
-30 c12 -23 12 -24 -3 -11 -10 7 -17 20 -17 29 0 18 3 16 20 -18z m1225 10
c-3 -5 -11 -10 -16 -10 -6 0 -7 5 -4 10 3 6 11 10 16 10 6 0 7 -4 4 -10z
m-1175 -25 c0 -12 -19 -12 -23 0 -4 9 -1 12 9 8 7 -3 14 -7 14 -8z m-80 -5 c0
-5 -2 -10 -4 -10 -3 0 -8 5 -11 10 -3 6 -1 10 4 10 6 0 11 -4 11 -10z m-45
-18 c-3 -3 -11 0 -18 7 -9 10 -8 11 6 5 10 -3 15 -9 12 -12z m152 -4 c-3 -8
-6 -5 -6 6 -1 11 2 17 5 13 3 -3 4 -12 1 -19z m-47 -14 c0 -8 -4 -14 -9 -14
-6 0 -9 9 -8 19 1 22 17 18 17 -5z m995 6 c-3 -5 -12 -10 -18 -10 -7 0 -6 4 3
10 19 12 23 12 15 0z m140 -9 c-15 -13 -62 -26 -50 -13 6 5 19 12 30 15 11 3
22 5 25 6 2 0 0 -3 -5 -8z m-1080 -11 c19 -8 19 -9 -2 -9 -13 -1 -26 -1 -30
-2 -4 0 -9 4 -11 10 -4 13 15 13 43 1z m969 -12 c-2 -13 -2 -17 2 -10 3 6 13
12 22 11 11 0 12 -2 5 -6 -24 -9 -13 -20 16 -15 24 3 29 0 28 -15 -2 -18 -15
-33 -31 -33 -5 0 -2 8 5 17 15 18 14 17 -38 -4 -7 -3 -13 2 -13 10 0 11 -6 13
-22 9 -19 -5 -20 -7 -5 -10 9 -2 17 -8 17 -13 0 -6 -5 -7 -10 -4 -6 3 -13 -1
-16 -9 -7 -18 -34 -22 -34 -6 0 6 7 10 15 10 8 0 15 5 15 10 0 6 -5 10 -11 10
-6 0 -1 9 12 19 l24 20 -25 -6 c-14 -3 -31 -10 -37 -16 -9 -6 -13 -5 -13 5 0
7 19 21 43 30 55 22 56 22 51 -4z m-931 -18 c-5 -19 -23 -29 -23 -12 0 7 20
32 26 32 1 0 0 -9 -3 -20z m825 -2 c-2 -13 -11 -23 -21 -24 -12 -1 -13 -1 -2
3 8 2 15 9 15 15 0 5 -7 8 -15 4 -9 -3 -15 0 -15 9 0 8 9 15 21 15 15 0 20 -5
17 -22z m-88 -7 c0 -5 18 -17 40 -27 63 -28 34 -38 -73 -25 -5 1 -6 5 -2 11 3
5 12 7 20 3 8 -3 15 0 15 6 0 16 -33 27 -38 13 -2 -7 -11 -12 -20 -12 -11 0
-7 7 13 20 33 22 45 25 45 11z m111 -40 c-6 -10 -7 -21 -4 -25 3 -3 -1 -6 -11
-6 -9 0 -15 -4 -12 -9 3 -5 -1 -12 -9 -15 -13 -4 -13 -2 -5 14 5 10 14 22 20
25 5 3 7 12 3 20 -3 10 1 15 11 15 13 0 15 -4 7 -19z m102 -15 c7 -16 -26 -50
-37 -39 -4 5 -6 2 -4 -6 2 -9 -6 -16 -17 -18 -13 -3 -16 -1 -8 4 7 5 14 20 17
33 2 14 9 24 15 23 6 -2 11 2 11 7 0 15 17 12 23 -4z m-203 -36 c-14 -11 -32
-19 -40 -19 -13 1 -13 1 0 6 8 4 21 12 28 20 7 7 19 13 25 13 7 0 1 -9 -13
-20z m133 -1 c-6 -6 -17 -8 -24 -3 -9 5 -8 9 7 14 23 9 31 3 17 -11z m-932
-12 c-10 -9 -11 -8 -5 6 3 10 9 15 12 12 3 -3 0 -11 -7 -18z m605 -29 c-19
-26 -20 -20 -5 19 6 15 13 22 16 16 2 -7 -3 -23 -11 -35z m234 23 c0 -5 -9
-11 -20 -14 -11 -3 -20 -1 -20 3 0 5 8 11 18 13 9 3 18 5 20 6 1 0 2 -3 2 -8z
m50 -6 c-7 -8 -20 -15 -29 -15 -13 1 -13 3 3 15 26 19 42 19 26 0z m20 -15 c0
-5 -5 -10 -11 -10 -5 0 -7 5 -4 10 3 6 8 10 11 10 2 0 4 -4 4 -10z m-903 -15
c0 -8 -4 -15 -8 -15 -11 0 -20 16 -12 24 11 11 20 7 20 -9z m787 -19 c-21 -15
-30 -14 -19 3 3 6 14 11 23 11 13 0 13 -2 -4 -14z m116 -10 c0 -3 -4 -8 -10
-11 -5 -3 -10 -1 -10 4 0 6 5 11 10 11 6 0 10 -2 10 -4z m-150 -10 c0 -3 -4
-8 -10 -11 -5 -3 -10 -1 -10 4 0 6 5 11 10 11 6 0 10 -2 10 -4z m100 -21 c-11
-13 -10 -14 4 -9 11 4 16 1 16 -11 0 -11 -5 -15 -14 -12 -8 3 -16 1 -19 -6 -2
-8 -9 -7 -20 5 -22 21 -22 29 0 21 11 -4 14 -3 9 5 -4 7 -1 12 8 12 9 0 16 5
16 12 0 6 3 8 6 5 4 -4 1 -13 -6 -22z m-735 5 c3 -5 1 -10 -4 -10 -6 0 -11 5
-11 10 0 6 2 10 4 10 3 0 8 -4 11 -10z m5 -38 c0 -1 -9 2 -20 8 -11 6 -20 15
-20 20 0 6 9 2 20 -7 11 -10 20 -19 20 -21z m657 22 c-3 -3 -12 -4 -19 -1 -8
3 -5 6 6 6 11 1 17 -2 13 -5z m115 -43 c-9 -9 -21 -17 -27 -18 -5 0 -19 -4
-30 -9 -18 -7 -18 -6 -5 7 8 8 23 18 33 22 9 3 17 11 17 16 0 6 6 8 14 5 12
-5 12 -8 -2 -23z m-640 -3 c-11 -11 -32 -3 -32 12 0 4 9 6 21 3 13 -4 17 -9
11 -15z m290 0 c-7 -7 -12 -8 -12 -2 0 6 3 14 7 17 3 4 9 5 12 2 2 -3 -1 -11
-7 -17z m229 -5 c13 -15 12 -15 -8 -4 -24 12 -29 21 -14 21 5 0 15 -7 22 -17z
m-521 -10 c11 3 18 1 14 -4 -9 -15 -41 -10 -55 9 -13 15 -12 16 3 3 10 -7 27
-11 38 -8z m485 7 c3 -5 1 -10 -4 -10 -6 0 -11 5 -11 10 0 6 2 10 4 10 3 0 8
-4 11 -10z m-575 -15 c11 -13 10 -14 -4 -9 -9 3 -16 10 -16 15 0 13 6 11 20
-6z m314 4 c-3 -5 -11 -9 -19 -9 -8 0 -16 4 -19 9 -3 5 5 9 19 9 14 0 22 -4
19 -9z m42 -41 c-9 -12 -16 -17 -16 -10 0 18 24 54 28 42 2 -5 -4 -20 -12 -32z
m239 22 c-3 -5 4 -10 17 -11 20 -1 19 -2 -6 -10 -17 -4 -32 -6 -34 -4 -8 7 7
35 18 35 6 0 8 -4 5 -10z m125 -13 c0 -13 -7 -32 -15 -43 -14 -18 -14 -18 -9
6 5 22 11 51 13 58 4 11 11 -3 11 -21z m-505 3 c3 -5 -1 -10 -9 -10 -9 0 -16
5 -16 10 0 6 4 10 9 10 6 0 13 -4 16 -10z m330 0 c-3 -5 -11 -10 -16 -10 -6 0
-7 5 -4 10 3 6 11 10 16 10 6 0 7 -4 4 -10z m-419 -37 c-7 -7 -26 7 -26 19 0
6 6 6 15 -2 9 -7 13 -15 11 -17z m80 9 c-10 -2 -22 0 -28 6 -6 6 0 7 19 4 21
-5 23 -7 9 -10z m339 -2 c-3 -5 -12 -10 -18 -10 -7 0 -6 4 3 10 19 12 23 12
15 0z m-431 -29 c-2 -3 -12 3 -22 13 -16 17 -16 18 5 5 12 -7 20 -15 17 -18z
m-69 1 c-3 -3 -11 0 -18 7 -9 10 -8 11 6 5 10 -3 15 -9 12 -12z m580 3 c-16
-8 -24 -14 -17 -15 14 0 16 -26 2 -35 -6 -3 -7 1 -4 9 4 10 -1 18 -11 23 -17
6 -17 7 1 20 10 7 27 13 38 12 17 0 15 -3 -9 -14z m-302 -30 c-9 -19 -18 -33
-20 -32 -5 6 21 67 29 67 4 0 0 -16 -9 -35z m-68 -3 c-3 -3 -11 0 -18 7 -9 10
-8 11 6 5 10 -3 15 -9 12 -12z m465 14 c0 -2 -7 -6 -15 -10 -8 -3 -15 -1 -15
4 0 6 7 10 15 10 8 0 15 -2 15 -4z m-555 -26 c3 -5 1 -10 -4 -10 -6 0 -11 5
-11 10 0 6 2 10 4 10 3 0 8 -4 11 -10z m80 -8 c-3 -3 -11 0 -18 7 -9 10 -8 11
6 5 10 -3 15 -9 12 -12z m299 -11 c-3 -29 14 -37 33 -16 4 4 2 5 -4 1 -7 -4
-13 -2 -13 3 0 6 9 11 21 11 11 0 18 -4 15 -9 -4 -5 0 -11 6 -14 7 -2 -6 -7
-29 -11 -24 -4 -45 -12 -49 -17 -8 -13 -33 -11 -49 5 -12 12 -11 15 11 19 18
3 24 1 20 -9 -3 -8 0 -11 10 -7 24 9 9 28 -20 26 -22 -2 -25 1 -17 11 6 7 8
16 4 19 -3 4 -2 7 4 7 6 0 16 -7 23 -15 14 -17 35 -21 25 -5 -3 6 -3 15 0 20
10 17 13 12 9 -19z m106 -11 c0 -5 -5 -10 -11 -10 -5 0 -7 5 -4 10 3 6 8 10
11 10 2 0 4 -4 4 -10z m55 -96 c-16 -8 -22 -12 -13 -10 10 3 20 1 23 -4 4 -6
2 -10 -4 -10 -5 0 -17 -3 -26 -6 -9 -4 -15 -2 -13 4 2 5 -1 10 -7 11 -5 1 -10
-3 -10 -8 0 -5 -4 -13 -9 -18 -5 -5 -6 -3 -2 5 4 7 1 12 -8 12 -9 0 -16 5 -16
11 0 6 7 9 15 6 8 -4 17 -2 20 4 4 5 11 7 16 4 5 -4 9 -1 9 4 0 6 12 11 28 11
l27 -1 -30 -15z m-405 -14 c0 -5 -4 -10 -10 -10 -5 0 -10 5 -10 10 0 6 5 10
10 10 6 0 10 -4 10 -10z m12 -38 c-32 -29 -32 -29 -10 -39 12 -5 18 -12 12
-15 -11 -7 -84 23 -84 35 0 5 9 5 21 2 18 -6 20 -4 14 17 -4 14 -3 18 2 11 7
-10 13 -10 29 2 35 27 48 16 16 -13z m18 -16 c0 -3 -4 -8 -10 -11 -5 -3 -10
-1 -10 4 0 6 5 11 10 11 6 0 10 -2 10 -4z m420 -6 c0 -5 -2 -10 -4 -10 -3 0
-8 5 -11 10 -3 6 -1 10 4 10 6 0 11 -4 11 -10z m-500 -40 c0 -5 -2 -10 -4 -10
-3 0 -8 5 -11 10 -3 6 -1 10 4 10 6 0 11 -4 11 -10z m590 -20 c0 -5 -8 -10
-17 -10 -15 0 -16 2 -3 10 19 12 20 12 20 0z m17 -26 c-3 -3 -12 -4 -19 -1 -8
3 -5 6 6 6 11 1 17 -2 13 -5z m-472 -34 c-3 -5 -11 -10 -16 -10 -6 0 -7 5 -4
10 3 6 11 10 16 10 6 0 7 -4 4 -10z m530 0 c3 -5 1 -10 -4 -10 -6 0 -11 5 -11
10 0 6 2 10 4 10 3 0 8 -4 11 -10z m15 -40 c0 -5 19 -6 43 -4 l42 4 -45 -11
c-32 -8 -45 -8 -48 0 -2 6 -13 11 -23 11 -11 0 -18 4 -15 9 7 11 46 3 46 -9z
m37 14 c-3 -3 -12 -4 -19 -1 -8 3 -5 6 6 6 11 1 17 -2 13 -5z m20 -51 c-9 -2
-15 -9 -12 -14 4 -5 1 -9 -4 -9 -12 0 -14 13 -4 23 3 4 13 6 22 6 13 -1 12 -2
-2 -6z m66 -20 c-7 -2 -19 -2 -25 0 -7 3 -2 5 12 5 14 0 19 -2 13 -5z m-76
-29 c-3 -3 -12 -4 -19 -1 -8 3 -5 6 6 6 11 1 17 -2 13 -5z m68 -24 c3 -5 1
-10 -4 -10 -6 0 -11 5 -11 10 0 6 2 10 4 10 3 0 8 -4 11 -10z"/>
<path d="M861 2688 c-1 -33 15 -46 22 -18 3 11 1 18 -3 15 -5 -3 -11 3 -13 12
-3 12 -5 8 -6 -9z"/>
<path d="M1027 2693 c-12 -12 -7 -22 8 -17 8 4 15 10 15 15 0 11 -14 12 -23 2z"/>
<path d="M798 2535 c-4 -21 -3 -23 13 -14 22 11 25 39 5 39 -7 0 -16 -11 -18
-25z"/>
<path d="M1030 2380 c0 -5 7 -10 16 -10 8 0 12 5 9 10 -3 6 -10 10 -16 10 -5
0 -9 -4 -9 -10z"/>
<path d="M1220 2141 c0 -5 9 -7 20 -4 11 3 20 7 20 9 0 2 -9 4 -20 4 -11 0
-20 -4 -20 -9z"/>
<path d="M1150 2130 c-8 -5 -12 -12 -9 -15 4 -3 12 1 19 10 14 17 11 19 -10 5z"/>
<path d="M1097 2043 c-4 -3 -7 -13 -7 -22 1 -15 2 -15 13 0 13 16 47 22 47 7
0 -4 4 -8 10 -8 5 0 7 7 4 15 -6 15 -55 21 -67 8z"/>
<path d="M1470 2039 c0 -5 5 -7 10 -4 6 3 10 8 10 11 0 2 -4 4 -10 4 -5 0 -10
-5 -10 -11z"/>
<path d="M1550 2040 c0 -5 4 -10 9 -10 6 0 13 5 16 10 3 6 -1 10 -9 10 -9 0
-16 -4 -16 -10z"/>
<path d="M1254 1988 c-4 -7 -4 -10 1 -6 4 4 15 2 23 -5 12 -10 14 -9 11 2 -7
20 -26 25 -35 9z"/>
<path d="M1210 1980 c0 -5 5 -10 10 -10 6 0 10 5 10 10 0 6 -4 10 -10 10 -5 0
-10 -4 -10 -10z"/>
<path d="M1177 1973 c-3 -5 1 -14 9 -21 12 -10 14 -10 14 2 0 17 -16 30 -23
19z"/>
<path d="M1510 1970 c0 -13 11 -13 30 0 12 8 11 10 -7 10 -13 0 -23 -4 -23
-10z"/>
<path d="M1130 1955 c0 -8 2 -15 4 -15 2 0 6 7 10 15 3 8 1 15 -4 15 -6 0 -10
-7 -10 -15z"/>
<path d="M1437 1963 c-4 -3 -7 -11 -7 -17 0 -6 5 -5 12 2 6 6 9 14 7 17 -3 3
-9 2 -12 -2z"/>
<path d="M1470 1966 c0 -4 7 -14 15 -22 8 -9 15 -11 15 -6 0 5 -7 15 -15 22
-8 7 -15 9 -15 6z"/>
<path d="M1056 1944 c-17 -17 -22 -49 -6 -39 6 3 10 12 10 20 0 8 5 17 12 21
7 4 8 3 4 -4 -4 -7 -1 -12 8 -12 8 0 16 -6 19 -12 2 -7 7 -10 11 -6 11 9 -12
48 -29 48 -7 0 -21 -7 -29 -16z"/>
<path d="M1343 1935 c-3 -9 -3 -19 1 -22 3 -4 6 -1 6 5 0 7 7 12 16 12 8 0 12
5 9 10 -9 15 -25 12 -32 -5z"/>
<path d="M1390 1941 c0 -5 5 -13 10 -16 6 -3 10 -2 10 4 0 5 -4 13 -10 16 -5
3 -10 2 -10 -4z"/>
<path d="M1297 1923 c-12 -11 -8 -23 8 -23 8 0 15 -5 15 -12 0 -6 3 -9 6 -5 8
7 -5 47 -15 47 -4 0 -11 -3 -14 -7z"/>
<path d="M1255 1909 c-9 -14 -2 -20 14 -10 8 6 9 11 3 15 -6 3 -14 1 -17 -5z"/>
<path d="M1200 1900 c0 -6 -4 -9 -9 -5 -6 3 -15 -4 -21 -15 -7 -13 -7 -20 0
-20 5 0 10 8 10 17 0 13 3 14 11 6 6 -6 18 -9 27 -5 11 4 14 1 9 -12 -4 -10
-3 -15 3 -11 17 10 11 34 -10 45 -14 8 -20 8 -20 0z"/>
<path d="M1471 1882 c-8 -15 -4 -18 30 -18 39 -1 50 8 27 23 -24 15 -47 13
-57 -5z"/>
<path d="M1098 1869 c-18 -10 -25 -59 -9 -59 5 0 7 10 3 22 -4 17 -2 20 12 15
10 -4 21 -7 26 -7 5 0 10 -8 12 -17 3 -16 4 -16 10 -2 6 16 -16 59 -30 59 -4
0 -15 -5 -24 -11z"/>
<path d="M1380 1846 c0 -16 3 -17 12 -8 16 16 45 15 51 0 3 -7 6 -4 6 8 1 16
-5 20 -34 20 -28 0 -35 -4 -35 -20z"/>
<path d="M1007 1844 c-4 -4 -7 -16 -7 -26 0 -15 5 -18 21 -13 15 5 19 4 15 -4
-5 -7 1 -11 14 -11 17 0 21 5 18 28 -2 20 -9 28 -28 30 -14 2 -29 0 -33 -4z"/>
<path d="M1302 1838 c-7 -7 -12 -21 -12 -32 1 -19 1 -19 11 -3 12 20 55 23 62
5 4 -9 6 -8 6 3 1 19 -18 39 -39 39 -9 0 -21 -5 -28 -12z"/>
<path d="M1222 1814 c-12 -8 -22 -23 -21 -32 0 -10 3 -12 6 -4 6 15 45 16 61
0 9 -9 12 -8 12 4 0 13 -24 48 -33 48 -2 0 -13 -7 -25 -16z"/>
<path d="M1427 1783 c-4 -3 -7 -15 -7 -26 0 -25 9 -17 15 12 4 22 2 25 -8 14z"/>
<path d="M1463 1783 c-18 -6 -16 -23 1 -23 8 0 17 -6 19 -12 3 -7 6 -1 6 15 1
27 -3 30 -26 20z"/>
<path d="M1263 1737 c-39 -17 -24 -77 18 -77 25 0 42 26 35 54 -7 29 -24 36
-53 23z m21 -43 c18 -7 12 -24 -10 -24 -8 0 -14 7 -14 15 0 17 2 18 24 9z"/>
<path d="M840 3993 c0 -10 49 -90 50 -81 0 10 90 -22 90 -33 0 -5 5 -9 11 -9
14 0 -33 63 -75 102 -28 25 -76 38 -76 21z"/>
<path d="M1779 2930 c-5 -28 -3 -35 8 -35 7 0 18 -8 25 -18 19 -25 52 -13 38
14 -13 23 -69 54 -71 39z"/>
<path d="M1930 2910 c0 -5 5 -10 10 -10 6 0 10 5 10 10 0 6 -4 10 -10 10 -5 0
-10 -4 -10 -10z"/>
<path d="M1725 2889 c-4 -6 -4 -13 -1 -16 8 -8 36 5 36 17 0 13 -27 13 -35 -1z"/>
<path d="M1567 2872 c-21 -23 -13 -32 27 -32 40 0 58 12 50 33 -8 23 -57 22
-77 -1z"/>
<path d="M1680 2855 c0 -9 6 -12 15 -9 8 4 15 10 15 15 0 5 -7 9 -15 9 -8 0
-15 -7 -15 -15z"/>
<path d="M1950 2861 c0 -6 5 -13 10 -16 16 -10 12 -21 -11 -31 -17 -8 -19 -12
-8 -21 11 -9 19 -8 33 2 17 13 17 18 6 45 -12 28 -30 41 -30 21z"/>
<path d="M1400 2835 c0 -8 9 -15 20 -15 11 0 20 7 20 15 0 8 -9 15 -20 15 -11
0 -20 -7 -20 -15z"/>
<path d="M1886 2834 c-7 -19 1 -34 19 -34 18 0 28 32 13 42 -19 11 -25 10 -32
-8z"/>
<path d="M2076 2818 c3 -4 14 -8 25 -8 14 0 19 -7 19 -25 0 -20 5 -25 25 -25
19 0 23 4 18 18 -11 29 -35 47 -64 47 -15 1 -25 -3 -23 -7z"/>
<path d="M1707 2813 c-12 -11 -8 -23 8 -23 8 0 15 7 15 15 0 16 -12 20 -23 8z"/>
<path d="M1997 2769 c-10 -6 -15 -14 -12 -19 6 -10 45 -1 45 11 0 14 -15 18
-33 8z"/>
<path d="M2006 2471 c-4 -7 -5 -15 -2 -18 9 -9 19 4 14 18 -4 11 -6 11 -12 0z"/>
<path d="M1990 2415 c0 -8 2 -15 4 -15 2 0 6 7 10 15 3 8 1 15 -4 15 -6 0 -10
-7 -10 -15z"/>
<path d="M2110 2412 c0 -4 7 -17 15 -29 14 -20 14 -23 -2 -33 -15 -9 -14 -10
9 -6 22 5 26 3 22 -9 -4 -8 -1 -15 5 -15 6 0 11 11 11 25 0 14 -4 25 -10 25
-5 0 -7 6 -4 14 3 8 -3 19 -15 25 -23 13 -31 14 -31 3z"/>
<path d="M202 2380 c-18 -29 -15 -38 4 -12 9 13 14 25 12 27 -2 2 -9 -5 -16
-15z"/>
<path d="M2060 2384 c0 -8 5 -12 10 -9 6 3 10 10 10 16 0 5 -4 9 -10 9 -5 0
-10 -7 -10 -16z"/>
<path d="M240 2374 c0 -8 5 -12 10 -9 6 3 10 10 10 16 0 5 -4 9 -10 9 -5 0
-10 -7 -10 -16z"/>
<path d="M18 2363 c-16 -4 -18 -18 -18 -120 l0 -115 36 22 c50 31 54 17 5 -16
-29 -19 -41 -34 -41 -50 0 -22 4 -24 48 -24 87 -1 246 -31 231 -44 -2 -2 -40
3 -84 10 -44 8 -105 13 -135 12 l-55 -3 -3 -35 -3 -35 68 0 c37 -1 76 -4 85
-7 25 -10 11 -38 -17 -38 -13 0 -26 -6 -28 -12 -4 -10 -8 -10 -15 1 -5 7 -28
14 -51 15 l-41 2 0 -114 0 -115 88 6 c87 6 181 29 257 62 33 14 37 15 26 1
-28 -34 -221 -86 -321 -86 l-51 0 2 -635 c1 -467 5 -633 13 -626 14 11 47 10
40 -1 -3 -5 -17 -13 -30 -18 -23 -9 -24 -14 -24 -90 l0 -79 33 5 c17 3 40 7
50 9 38 7 9 -20 -36 -35 -43 -14 -47 -18 -47 -47 0 -32 12 -43 25 -23 11 18
41 11 42 -11 3 -30 8 -33 36 -14 22 14 28 14 58 1 19 -8 44 -18 57 -23 l24 -8
-31 -33 c-32 -33 -39 -52 -20 -52 6 0 13 9 16 20 3 11 17 23 30 26 19 5 21 9
11 15 -10 7 -10 9 0 9 7 0 17 11 22 25 9 24 40 36 40 15 0 -5 13 -10 29 -10
27 0 30 -3 28 -31 -2 -28 1 -32 30 -35 35 -4 51 17 30 38 -31 31 -26 43 19 44
45 1 55 -11 32 -34 -16 -16 -8 -22 38 -29 22 -3 41 -10 45 -14 3 -5 5 7 5 26
0 24 -5 35 -18 38 -31 9 -20 24 22 31 22 3 43 7 47 9 5 1 9 -8 11 -21 2 -12 7
-20 11 -17 5 2 6 -7 3 -20 -2 -14 -11 -25 -19 -25 -11 0 -11 -4 -3 -20 12 -22
33 -18 24 4 -3 7 2 16 11 19 8 4 20 19 26 34 7 16 13 23 16 16 3 -7 9 -13 14
-13 4 0 6 7 2 16 -5 13 -2 15 15 9 16 -4 22 -2 23 9 1 9 2 21 3 26 2 16 55 40
87 40 17 0 29 5 29 13 0 11 49 47 64 47 9 0 1 -39 -11 -51 -9 -9 -8 -15 2 -25
17 -18 22 -17 28 0 4 11 1 13 -11 9 -11 -3 -7 5 11 21 30 30 33 41 15 50 -10
5 -10 7 0 12 6 3 10 10 6 15 -3 5 4 9 15 9 11 0 25 9 31 19 6 12 17 17 29 14
14 -3 19 0 18 14 -1 12 4 17 15 15 16 -3 37 31 53 86 5 17 12 22 26 19 10 -3
21 -1 24 3 3 5 -3 10 -12 12 -16 3 -15 6 5 26 12 12 27 20 32 17 6 -4 10 0 10
9 0 8 3 22 7 32 5 14 2 16 -15 12 -15 -4 -22 -2 -22 8 0 8 -5 14 -10 14 -6 0
-10 -8 -8 -17 2 -10 -4 -19 -13 -21 -12 -2 -15 4 -11 26 3 24 9 29 33 30 16 0
29 -3 29 -8 0 -16 32 -20 47 -5 12 12 18 13 29 4 11 -9 14 -9 14 1 0 10 3 10
15 0 12 -10 15 -10 15 1 0 8 -13 20 -30 27 -32 15 -40 32 -15 32 9 0 21 11 27
25 9 19 14 22 20 13 7 -10 9 -9 5 2 -2 8 -14 17 -27 18 -17 3 -21 0 -17 -12 5
-12 0 -16 -18 -16 -22 0 -25 -4 -25 -40 0 -34 -3 -39 -19 -37 -32 5 -53 28
-40 43 9 11 15 12 26 2 12 -10 13 -7 7 18 -8 34 -14 43 -14 22 0 -18 -27 -31
-43 -21 -6 4 -8 0 -4 -10 9 -23 -5 -28 -28 -11 -19 14 -19 15 6 37 13 13 29
22 35 20 7 -2 9 6 6 24 -5 25 -3 26 10 15 11 -9 18 -10 23 -2 3 5 0 10 -8 10
-10 0 -13 7 -10 20 5 20 23 28 23 11 0 -5 13 -12 30 -16 16 -4 32 -10 35 -15
3 -4 14 -6 25 -3 11 3 17 9 15 14 -3 4 -12 6 -20 2 -11 -3 -15 2 -15 17 0 19
-2 20 -15 10 -12 -10 -15 -10 -15 4 0 9 -4 16 -10 16 -5 0 -10 -8 -10 -17 0
-12 -3 -14 -11 -6 -8 8 -6 18 6 36 10 17 13 27 6 32 -6 3 -11 -1 -11 -9 0 -9
-4 -16 -10 -16 -5 0 -10 -7 -10 -16 0 -10 -6 -14 -15 -10 -11 4 -15 -2 -15
-24 0 -17 -4 -30 -10 -30 -5 0 -6 -8 -3 -17 5 -12 2 -15 -10 -10 -12 4 -17 1
-17 -11 0 -11 -8 -18 -20 -19 -24 -2 -25 5 -3 29 9 11 11 18 5 18 -7 0 -12 7
-12 16 0 11 6 14 22 9 19 -6 21 -5 11 6 -7 7 -13 20 -13 28 1 13 4 12 16 -4
15 -19 16 -18 9 15 -3 19 -9 43 -11 53 -3 9 -1 17 5 17 6 0 11 5 11 10 0 6 -9
10 -20 10 -18 0 -20 -5 -15 -38 4 -35 2 -38 -17 -37 -24 2 -35 19 -19 30 17
10 13 25 -6 25 -15 0 -15 2 1 19 12 13 15 27 10 46 -5 21 -4 26 5 20 8 -4 14
1 18 14 4 16 11 19 29 15 17 -4 24 -2 24 9 0 8 7 17 15 21 8 3 15 18 15 33 0
22 -2 25 -11 13 -7 -11 -9 -7 -5 18 3 21 0 32 -7 31 -23 -4 -67 21 -67 38 0
13 -3 14 -11 6 -16 -16 -20 -61 -7 -70 7 -4 9 2 6 15 -7 25 7 39 16 17 3 -8 9
-14 13 -14 4 1 16 -1 26 -6 15 -6 16 -10 5 -16 -8 -6 -9 -12 -3 -16 15 -12 17
-40 3 -45 -7 -3 -21 -2 -31 1 -17 6 -17 8 -3 20 11 9 16 10 16 2 0 -6 4 -11
10 -11 6 0 5 9 -1 24 l-12 25 -26 -32 c-14 -17 -25 -39 -23 -49 3 -15 -2 -17
-27 -12 -21 5 -31 3 -31 -6 0 -7 7 -10 15 -6 15 6 33 -19 22 -30 -10 -11 -47
17 -47 36 0 10 -4 22 -10 25 -5 3 -10 1 -10 -6 0 -8 -4 -8 -15 1 -8 7 -14 20
-13 29 2 11 -6 17 -24 19 -18 2 -28 -1 -28 -10 0 -16 -25 20 -35 51 -6 20 -4
23 10 17 13 -5 16 -2 11 10 -3 8 -6 21 -6 27 0 6 -7 1 -16 -12 -11 -15 -14
-33 -10 -52 3 -19 2 -28 -4 -24 -6 3 -10 14 -10 23 0 9 -5 24 -11 32 -8 12
-10 9 -6 -12 2 -16 0 -28 -4 -28 -5 0 -9 4 -9 9 0 5 -14 11 -30 15 -25 4 -30
10 -30 33 l1 28 13 -30 14 -30 -1 31 c0 49 26 75 36 37 4 -14 5 -12 6 5 1 13
-5 22 -14 22 -8 0 -15 5 -15 11 0 6 6 9 14 6 19 -7 40 18 32 38 -3 8 -9 14
-13 13 -17 -4 -53 14 -47 24 4 7 9 7 13 0 4 -7 12 -7 20 -2 10 6 2 12 -28 20
-43 11 -47 21 -11 27 11 2 20 -3 20 -10 0 -8 4 -7 10 3 8 13 10 13 10 -1 0
-11 9 -15 30 -14 17 1 35 -4 41 -11 15 -19 28 -8 22 17 -4 15 -2 20 10 17 9
-2 17 2 19 7 2 6 -11 11 -29 13 -28 3 -32 7 -38 43 -4 21 -11 39 -16 39 -6 0
-7 -4 -4 -10 4 -6 -6 -10 -22 -9 -22 0 -24 2 -10 8 17 6 17 8 3 20 -8 7 -23
14 -32 15 -10 2 -20 8 -22 14 -3 11 17 8 43 -7 5 -3 17 -6 27 -6 14 -1 16 4
12 22 l-6 23 42 -15 c24 -8 45 -13 48 -10 3 2 -3 7 -12 10 -9 3 -23 7 -31 10
-8 2 -15 8 -15 12 1 12 50 45 50 33 0 -5 -4 -10 -10 -10 -5 0 -10 -6 -10 -14
0 -9 7 -12 20 -9 17 5 20 0 20 -26 0 -17 -5 -31 -11 -31 -6 0 -9 -6 -6 -12 2
-7 -3 -19 -12 -26 -14 -11 -13 -11 7 -2 12 6 22 15 22 20 0 6 4 10 9 10 16 0
9 -64 -8 -78 -14 -12 -13 -13 7 -9 14 4 22 0 22 -9 0 -8 -4 -14 -10 -14 -5 0
-10 -7 -10 -15 0 -8 -7 -15 -15 -15 -8 0 -15 -5 -15 -11 0 -6 6 -9 14 -6 9 4
16 -3 20 -19 4 -14 11 -22 17 -18 7 4 8 9 1 13 -10 7 -10 47 1 57 4 4 7 -2 7
-14 0 -12 6 -23 13 -23 6 -1 23 -3 37 -4 23 -2 60 13 60 25 0 3 -9 6 -19 7
-14 1 -18 -3 -14 -14 5 -13 2 -15 -11 -10 -10 4 -26 7 -37 7 -10 0 -19 5 -19
11 0 6 7 9 15 5 8 -3 15 -1 15 4 0 5 -9 11 -19 15 -11 3 -19 14 -19 23 1 9 -2
31 -6 47 -7 31 14 66 46 78 7 2 10 8 5 12 -4 5 -21 -4 -37 -20 -29 -28 -37
-24 -24 9 3 9 10 14 14 11 5 -3 12 0 16 7 4 7 4 10 -1 6 -4 -4 -14 -3 -22 3
-10 9 -13 7 -14 -7 0 -11 -3 -14 -6 -6 -3 7 1 20 8 29 12 14 11 15 -11 8 -25
-8 -25 -7 -7 13 19 20 18 21 -5 15 -21 -6 -22 -5 -8 12 12 15 12 17 1 10 -11
-6 -13 -3 -9 13 4 14 2 20 -4 16 -6 -4 -8 1 -3 15 5 16 3 20 -9 15 -19 -7 -16
-44 4 -62 13 -12 12 -13 -8 -9 -12 3 -19 1 -16 -4 3 -6 0 -16 -6 -25 -10 -11
-16 -12 -26 -3 -9 7 -14 8 -14 1 0 -6 6 -13 13 -16 6 -4 2 -4 -10 -2 -12 2
-21 -1 -20 -6 3 -16 -35 -36 -40 -21 -2 7 -10 10 -17 7 -8 -3 -15 5 -18 21 -4
20 -2 25 9 21 8 -3 12 -2 9 2 -3 5 4 16 15 25 10 9 19 25 19 34 0 11 -3 14 -8
8 -11 -16 -54 -16 -73 0 -22 21 -18 61 7 57 16 -2 17 -1 4 7 -37 26 -52 -5
-31 -62 8 -20 16 -25 41 -23 18 1 29 -2 27 -8 -2 -6 -14 -9 -27 -8 -12 2 -26
-2 -31 -9 -6 -10 -11 -10 -22 0 -11 9 -17 9 -22 0 -6 -8 -10 -7 -16 2 -14 22
-10 33 6 19 11 -9 15 -9 15 -1 0 20 -32 25 -45 8 -7 -10 -20 -17 -29 -17 -9 0
-16 -5 -16 -11 0 -6 7 -9 15 -5 8 3 15 1 15 -4 0 -5 6 -7 14 -4 7 3 16 -2 20
-12 4 -12 2 -15 -9 -10 -8 3 -22 9 -30 12 -10 4 -15 0 -15 -10 0 -9 -4 -16 -9
-16 -5 0 -8 8 -6 18 1 9 -2 23 -8 30 -5 6 -6 12 -2 12 4 0 2 7 -5 15 -7 9 -10
19 -6 22 4 4 10 3 14 -2 10 -14 42 -18 42 -5 0 5 -3 10 -7 10 -5 0 -14 4 -22
9 -12 8 -12 12 2 26 23 22 21 35 -3 35 -11 0 -20 -5 -20 -11 0 -5 5 -7 10 -4
6 3 10 1 10 -4 0 -14 -4 -14 -51 1 -47 14 -52 31 -6 23 28 -5 30 -5 14 7 -17
13 -17 14 2 15 12 1 21 -2 21 -6 0 -5 10 -8 23 -7 12 1 25 -3 29 -8 3 -5 6 11
5 35 0 24 3 53 7 64 4 11 4 16 -1 10 -11 -14 -43 -18 -43 -6 0 5 6 12 12 14 8
3 6 6 -4 6 -22 1 -23 -22 -3 -43 17 -16 20 -56 5 -56 -5 0 -10 5 -10 11 0 5
-5 7 -11 4 -13 -8 -59 2 -59 14 0 10 33 10 40 0 3 -4 12 -4 20 1 10 7 11 10 3
10 -7 0 -13 7 -13 15 0 8 -5 15 -11 15 -5 0 -7 -4 -4 -10 7 -11 -9 -13 -42 -4
-13 4 -23 10 -23 16 0 5 9 4 21 -3 17 -9 24 -7 40 10 24 26 24 26 -9 27 -15 1
-21 -1 -14 -3 22 -8 3 -21 -23 -15 -24 4 -24 5 -8 18 17 13 17 13 1 14 -10 0
-18 4 -18 8 0 9 84 0 113 -13 10 -4 17 -3 17 4 0 6 -9 11 -20 11 -11 0 -20 4
-20 9 0 13 43 10 53 -4 5 -6 6 -2 3 9 -4 11 -1 23 6 28 10 6 8 8 -4 8 -10 0
-18 5 -18 11 0 6 6 9 14 6 10 -4 12 0 8 16 -3 12 -7 16 -10 9 -2 -6 -8 -12
-13 -12 -6 0 -7 5 -4 10 3 6 1 10 -4 10 -6 0 -11 -5 -11 -11 0 -6 -9 -8 -22
-4 -20 5 -21 4 -5 -5 9 -6 22 -8 27 -5 6 3 10 1 10 -4 0 -6 -9 -16 -20 -23
-11 -7 -20 -18 -20 -25 0 -15 -48 -17 -68 -4 -10 6 -7 10 12 13 14 3 26 1 26
-4 0 -5 5 -6 11 -2 17 10 -10 23 -42 19 -17 -3 -29 2 -33 11 -3 9 1 14 12 15
10 0 3 7 -16 15 -18 8 -35 21 -38 29 -4 8 -14 15 -23 15 -17 0 -41 18 -41 32
0 4 18 1 40 -7 l40 -14 -1 27 c-1 17 -3 20 -6 10 -5 -20 -28 -24 -38 -8 -11
17 -45 11 -45 -7 -1 -17 -1 -17 -14 0 -8 10 -16 13 -17 8 -5 -14 -139 26 -162
49 -14 13 -20 38 -24 96 -3 44 -9 81 -14 82 -5 2 -9 10 -9 17 0 7 -7 15 -15
19 -8 3 -15 10 -15 15 0 6 7 8 15 5 9 -4 15 0 15 9 0 16 -16 17 -37 4 -15 -10
-56 10 -48 24 4 5 5 8 3 8 -2 -1 -11 -3 -20 -6z m75 -370 c-13 -2 -35 -2 -50
0 -16 2 -5 4 22 4 28 0 40 -2 28 -4z m527 -83 c0 -5 -4 -10 -10 -10 -5 0 -10
5 -10 10 0 6 5 10 10 10 6 0 10 -4 10 -10z m-473 -6 c-3 -3 -12 -4 -19 -1 -8
3 -5 6 6 6 11 1 17 -2 13 -5z m354 -241 c-8 -15 -10 -15 -11 -2 0 17 10 32 18
25 2 -3 -1 -13 -7 -23z m62 11 c15 -6 25 -24 12 -24 -13 0 -55 25 -55 32 0 6
6 7 13 4 6 -3 20 -9 30 -12z m-29 -26 c-5 -7 -2 -9 8 -6 11 5 18 -4 27 -31 21
-72 10 -83 -14 -14 -10 26 -14 31 -15 16 0 -19 -2 -20 -30 -10 -16 6 -30 18
-30 27 0 12 2 13 9 1 7 -11 11 -9 20 8 7 11 16 21 22 21 6 0 7 -5 3 -12z m-3
-86 c-13 -2 -31 3 -39 12 -14 14 -12 14 24 3 33 -10 35 -13 15 -15z m219 -13
c5 -8 4 -19 -3 -28 -8 -10 -8 -13 -1 -8 7 4 14 1 17 -6 3 -7 -3 -13 -14 -13
-21 0 -34 22 -19 31 6 4 10 14 9 23 0 14 -2 13 -9 -3 -5 -11 -9 -15 -9 -9 -1
7 -8 11 -17 10 -9 0 -19 4 -21 10 -6 17 57 10 67 -7z m-340 2 c37 -7 26 -9
-55 -9 -64 0 -91 3 -75 8 32 10 74 11 130 1z m230 -17 c0 -8 -5 -12 -10 -9 -6
4 -8 11 -5 16 9 14 15 11 15 -7z m34 -9 c3 -8 1 -15 -4 -15 -6 0 -10 7 -10 15
0 8 2 15 4 15 2 0 6 -7 10 -15z m36 -15 c0 -4 -6 -10 -14 -13 -10 -4 -12 0 -9
14 5 18 23 18 23 -1z m-635 -10 c-27 -12 -43 -12 -25 0 8 5 22 9 30 9 10 0 8
-3 -5 -9z m238 -7 c-7 -2 -21 -2 -30 0 -10 3 -4 5 12 5 17 0 24 -2 18 -5z
m-75 -10 c-10 -2 -26 -2 -35 0 -10 3 -2 5 17 5 19 0 27 -2 18 -5z m482 -1 c0
-5 10 -8 23 -7 25 2 67 -22 67 -39 0 -6 -4 -5 -9 3 -5 7 -14 10 -20 7 -6 -4
-11 -2 -11 4 0 6 -4 9 -9 6 -13 -8 -61 11 -61 24 0 5 5 10 10 10 6 0 10 -4 10
-8z m-547 -9 c-7 -2 -19 -2 -25 0 -7 3 -2 5 12 5 14 0 19 -2 13 -5z m-46 -9
c-3 -3 -12 -4 -19 -1 -8 3 -5 6 6 6 11 1 17 -2 13 -5z m209 -21 c-4 -5 -10 -7
-12 -5 -3 1 -15 -9 -27 -23 -20 -23 -31 -26 -111 -30 -49 -3 -98 -7 -108 -11
-10 -3 -18 -3 -18 0 0 3 15 10 33 16 l32 10 -30 -4 c-16 -2 -39 -6 -50 -10
-11 -3 -2 3 20 14 22 11 49 20 60 20 11 1 36 8 55 15 37 14 169 20 156 8z
m452 -31 c2 -8 -3 -10 -15 -6 -15 6 -16 5 -5 -7 10 -11 16 -11 32 -1 18 11 25
6 18 -15 -5 -14 -36 -13 -48 2 -7 8 -17 12 -24 8 -6 -3 -8 -3 -4 2 4 4 3 14
-2 20 -7 9 -3 12 17 10 15 0 28 -6 31 -13z m86 -9 c3 -7 -1 -13 -9 -13 -8 0
-15 -7 -15 -17 0 -22 -6 -14 -13 17 -5 21 -3 26 13 26 11 0 22 -6 24 -13z m22
-43 c8 0 14 -4 14 -9 0 -4 -11 -6 -25 -3 -25 4 -31 13 -18 26 4 4 9 2 11 -3 2
-6 10 -11 18 -11z m-139 -52 c-3 -8 -6 -5 -6 6 -1 11 2 17 5 13 3 -3 4 -12 1
-19z m50 -31 c11 4 14 2 11 -8 -7 -21 -32 -17 -35 6 -2 11 0 15 3 8 3 -7 12
-9 21 -6z m-202 -23 c-35 -27 -107 -61 -180 -84 -55 -18 -102 -24 -215 -27
-95 -3 -154 -1 -170 6 -21 10 -17 11 27 6 132 -14 404 35 498 90 46 26 70 32
40 9z m195 -27 c0 -7 -9 -18 -20 -25 -23 -14 -25 -10 -8 18 14 23 28 26 28 7z
m-51 -133 c61 -15 97 -32 88 -40 -2 -2 -28 4 -58 13 -81 26 -253 23 -344 -5
-138 -42 -297 -161 -336 -250 -12 -27 -19 -67 -19 -105 -1 -69 -13 -61 -24 14
-14 97 94 243 233 314 48 24 156 61 201 68 63 11 199 6 259 -9z m-38 -95 c19
-6 47 -17 63 -24 l28 -13 -20 -20 c-19 -19 -23 -19 -91 -6 -46 8 -80 10 -94 4
-13 -5 -16 -9 -7 -9 9 -1 23 -10 33 -21 10 -12 21 -19 25 -16 4 2 12 -2 19 -9
10 -10 7 -18 -11 -37 -12 -12 -25 -30 -28 -39 -4 -11 -24 -19 -56 -23 -28 -3
-76 -15 -108 -26 -31 -11 -65 -20 -75 -20 -10 0 -26 -11 -35 -25 -18 -28 -49
-32 -78 -10 -29 22 -36 19 -36 -15 0 -34 -14 -39 -30 -11 -11 22 1 106 19 124
18 18 13 36 -9 30 -11 -3 -20 -9 -20 -14 0 -5 -4 -9 -10 -9 -18 0 -10 17 31
63 42 49 130 98 215 122 60 16 229 19 275 4z m377 -57 c2 -7 -3 -12 -12 -12
-9 0 -16 7 -16 16 0 17 22 14 28 -4z m-258 -2 c0 -5 -4 -10 -10 -10 -5 0 -10
5 -10 10 0 6 5 10 10 10 6 0 10 -4 10 -10z m230 -131 c0 -48 -34 -140 -66
-178 -13 -16 -24 -34 -24 -39 0 -15 -92 -75 -170 -111 -111 -52 -181 -66 -325
-66 -138 0 -220 14 -252 45 -11 9 -29 21 -41 24 -12 4 -22 12 -22 17 0 12 0
12 46 -10 74 -35 188 -54 298 -49 312 16 558 214 531 427 l-6 46 16 -34 c8
-18 15 -51 15 -72z m-135 20 c27 -43 7 -136 -45 -209 -23 -33 -153 -102 -238
-126 -70 -21 -245 -25 -264 -6 -6 6 -20 12 -30 12 -20 0 -82 29 -76 35 2 2 28
-4 57 -14 33 -11 92 -18 151 -20 81 -2 108 2 175 24 70 23 88 35 148 93 37 37
67 72 67 78 0 7 5 14 12 16 7 3 11 28 11 66 0 44 4 62 13 62 7 0 16 -5 19 -11z
m181 -26 c-10 -10 -19 5 -10 18 6 11 8 11 12 0 2 -7 1 -15 -2 -18z m34 -177
c0 -8 -4 -18 -10 -21 -5 -3 -10 3 -10 14 0 12 5 21 10 21 6 0 10 -6 10 -14z
m-1100 -90 c0 -3 -4 -8 -10 -11 -5 -3 -10 -1 -10 4 0 6 5 11 10 11 6 0 10 -2
10 -4z m636 -401 c-26 -19 -42 -19 -26 0 7 8 20 15 29 15 13 -1 13 -3 -3 -15z"/>
<path d="M638 983 c12 -2 30 -2 40 0 9 3 -1 5 -23 4 -22 0 -30 -2 -17 -4z"/>
<path d="M726 965 c21 -16 44 -19 44 -6 0 5 -10 11 -22 15 -37 9 -43 7 -22 -9z"/>
<path d="M240 861 c0 -6 4 -13 10 -16 6 -3 7 1 4 9 -7 18 -14 21 -14 7z"/>
<path d="M1981 2365 c-1 -13 19 -35 31 -35 4 0 8 5 8 10 0 6 -6 10 -14 10 -8
0 -17 6 -19 13 -3 6 -6 7 -6 2z"/>
<path d="M210 2351 c0 -5 5 -13 10 -16 6 -3 10 -2 10 4 0 5 -4 13 -10 16 -5 3
-10 2 -10 -4z"/>
<path d="M2050 2320 c-11 -7 -11 -10 -2 -10 7 0 10 -5 6 -11 -4 -7 -1 -10 6
-7 14 4 24 38 12 38 -4 0 -14 -5 -22 -10z"/>
<path d="M146 2304 c-8 -22 -4 -25 11 -9 7 8 9 16 4 19 -5 3 -12 -1 -15 -10z"/>
<path d="M220 2310 c0 -6 -4 -8 -10 -5 -5 3 -10 -1 -10 -11 0 -13 3 -14 13 -5
8 6 17 8 20 4 4 -3 7 -1 7 5 0 6 -4 14 -10 17 -5 3 -10 1 -10 -5z"/>
<path d="M298 2303 c7 -3 16 -2 19 1 4 3 -2 6 -13 5 -11 0 -14 -3 -6 -6z"/>
<path d="M179 2273 c0 -25 -1 -26 -9 -8 -8 19 -9 19 -9 -1 -1 -13 6 -24 17
-26 15 -4 17 0 14 29 -5 40 -12 43 -13 6z"/>
<path d="M1957 2293 c-4 -3 -7 -16 -7 -28 0 -13 -10 -27 -22 -34 -23 -11 -23
-11 2 -6 25 5 25 5 3 -6 -31 -16 -29 -31 2 -17 14 6 24 16 23 22 0 6 4 24 10
39 7 16 12 30 12 33 0 6 -16 5 -23 -3z"/>
<path d="M1921 2274 c0 -11 3 -14 6 -6 3 7 2 16 -1 19 -3 4 -6 -2 -5 -13z"/>
<path d="M2050 2260 c0 -5 7 -7 15 -4 8 4 15 8 15 10 0 2 -7 4 -15 4 -8 0 -15
-4 -15 -10z"/>
<path d="M1890 2258 c-1 -5 -3 -13 -4 -19 0 -6 -10 -17 -20 -25 -14 -10 -16
-14 -5 -14 26 0 41 17 36 41 -2 13 -5 21 -7 17z"/>
<path d="M1830 2230 c0 -5 5 -10 10 -10 6 0 10 5 10 10 0 6 -4 10 -10 10 -5 0
-10 -4 -10 -10z"/>
<path d="M280 2202 c0 -12 19 -26 26 -19 2 2 -2 10 -11 17 -9 8 -15 8 -15 2z"/>
<path d="M505 2186 c5 -31 12 -43 21 -34 3 4 -2 19 -10 35 l-16 28 5 -29z"/>
<path d="M1936 2181 c-4 -5 0 -11 6 -13 8 -3 4 -9 -10 -17 -18 -10 -22 -9 -22
2 0 8 -10 17 -22 21 -33 8 -34 8 -34 -13 0 -15 4 -17 17 -10 24 13 29 11 23
-6 -8 -20 9 -19 53 5 23 12 31 20 20 20 -10 0 -15 5 -12 10 3 6 2 10 -4 10 -5
0 -12 -4 -15 -9z"/>
<path d="M200 2150 c0 -5 5 -10 10 -10 6 0 10 5 10 10 0 6 -4 10 -10 10 -5 0
-10 -4 -10 -10z"/>
<path d="M542 2122 c-1 -24 0 -25 9 -9 7 11 7 23 2 28 -5 5 -9 -3 -11 -19z"/>
<path d="M180 2131 c0 -5 9 -11 20 -14 24 -6 27 8 4 17 -21 8 -24 8 -24 -3z"/>
<path d="M2018 2133 c-10 -2 -18 -9 -18 -15 0 -5 7 -7 16 -4 9 3 22 6 30 6 8
0 14 5 14 10 0 10 -12 11 -42 3z"/>
<path d="M1868 2096 c-10 -7 -18 -16 -18 -19 0 -13 35 2 38 16 4 20 2 20 -20
3z"/>
<path d="M1916 2091 c-11 -12 -14 -21 -7 -26 15 -9 28 1 34 25 6 25 -5 26 -27
1z"/>
<path d="M2035 2100 c-3 -5 -2 -10 4 -10 5 0 13 5 16 10 3 6 2 10 -4 10 -5 0
-13 -4 -16 -10z"/>
<path d="M517 2094 c-3 -5 1 -15 9 -22 16 -14 18 -5 5 17 -5 7 -11 9 -14 5z"/>
<path d="M240 2080 c0 -5 5 -10 11 -10 5 0 7 5 4 10 -3 6 -8 10 -11 10 -2 0
-4 -4 -4 -10z"/>
<path d="M550 2079 c0 -5 5 -7 10 -4 6 3 10 8 10 11 0 2 -4 4 -10 4 -5 0 -10
-5 -10 -11z"/>
<path d="M465 2070 c27 -12 43 -12 25 0 -8 5 -22 9 -30 9 -10 0 -8 -3 5 -9z"/>
<path d="M1955 2060 c-18 -8 -18 -9 -2 -9 10 -1 15 -5 12 -11 -3 -5 -2 -10 4
-10 5 0 9 9 8 20 -1 11 -1 20 -2 19 0 0 -9 -4 -20 -9z"/>
<path d="M461 2033 c0 -12 2 -13 6 -5 4 10 8 9 19 -5 21 -28 17 -36 -16 -29
-17 3 -30 1 -30 -4 0 -11 3 -12 42 -15 15 -1 25 2 23 6 -3 4 -1 10 5 14 5 3
10 1 10 -4 0 -6 5 -11 11 -11 5 0 7 5 4 10 -3 6 -2 10 3 10 5 0 12 11 15 25 3
17 0 24 -7 22 -6 -2 -10 -11 -8 -20 1 -8 -2 -18 -8 -22 -5 -3 -10 2 -11 12 0
12 -2 13 -6 5 -4 -10 -9 -8 -20 7 -17 26 -33 27 -32 4z"/>
<path d="M1900 2040 c-9 -6 -10 -10 -3 -10 6 0 15 5 18 10 8 12 4 12 -15 0z"/>
<path d="M570 2020 c0 -6 5 -10 10 -10 6 0 10 -4 10 -10 0 -5 -7 -10 -16 -10
-8 0 -21 -6 -28 -12 -16 -17 -28 -48 -18 -49 4 0 17 -2 30 -5 14 -2 21 0 17 6
-3 5 -13 10 -21 10 -8 0 -14 4 -14 9 0 11 25 32 36 30 5 -1 20 3 34 9 18 8 20
11 8 11 -10 1 -18 5 -18 10 0 5 -7 11 -15 15 -8 3 -15 1 -15 -4z"/>
<path d="M1725 2020 c-3 -5 -2 -10 4 -10 5 0 13 5 16 10 3 6 2 10 -4 10 -5 0
-13 -4 -16 -10z"/>
<path d="M1710 1960 c0 -5 5 -10 11 -10 5 0 7 5 4 10 -3 6 -8 10 -11 10 -2 0
-4 -4 -4 -10z"/>
<path d="M690 1920 c0 -5 5 -10 11 -10 5 0 7 5 4 10 -3 6 -8 10 -11 10 -2 0
-4 -4 -4 -10z"/>
<path d="M2115 1892 c-70 -24 -173 -125 -186 -183 -6 -23 -7 -56 -3 -73 9 -46
46 -116 61 -116 7 0 19 -13 28 -29 14 -28 106 -91 153 -106 16 -4 22 -2 22 8
0 9 -6 18 -12 20 -9 4 -9 6 -1 6 8 1 12 54 13 195 1 179 -1 195 -17 199 -17 4
-17 5 0 6 13 1 17 10 17 46 0 51 -1 51 -75 27z m-41 -404 c-3 -5 -14 -2 -25 8
-27 25 -23 37 6 18 14 -9 22 -20 19 -26z"/>
<path d="M666 1884 c-11 -8 -16 -14 -10 -14 13 0 39 18 34 24 -3 2 -14 -2 -24
-10z"/>
<path d="M727 1866 c-4 -10 5 -18 24 -25 18 -6 27 -6 24 -1 -4 6 -13 10 -21
10 -8 0 -13 4 -9 9 3 5 1 12 -4 15 -5 3 -11 0 -14 -8z"/>
<path d="M677 1833 c-20 -5 -13 -23 9 -23 9 0 12 5 8 12 -5 8 -2 9 10 5 10 -4
15 -3 11 3 -6 10 -9 11 -38 3z"/>
<path d="M787 1826 c-4 -9 -13 -13 -21 -10 -8 3 -17 1 -21 -5 -3 -7 0 -8 9 -5
9 3 16 2 16 -4 0 -6 -6 -13 -12 -15 -8 -4 -7 -6 3 -6 12 -1 16 -9 15 -26 0
-16 -6 -23 -14 -20 -7 3 -10 0 -7 -5 3 -6 13 -10 21 -10 8 0 14 -7 14 -15 0
-8 -4 -15 -10 -15 -5 0 -9 -11 -8 -25 1 -14 6 -25 11 -25 5 0 6 9 2 19 -3 11
-1 22 5 26 6 3 10 -3 10 -17 0 -18 2 -20 10 -8 6 9 6 18 0 24 -6 6 -10 15 -10
21 0 5 4 4 8 -3 5 -7 16 -10 25 -6 25 9 21 19 -9 20 -35 3 -42 13 -20 30 11 8
15 14 10 14 -6 0 -15 -5 -22 -12 -7 -7 -12 -8 -12 -2 0 5 9 18 21 27 11 10 18
21 14 25 -3 3 -10 0 -15 -8 -5 -8 -12 -11 -16 -7 -4 4 0 13 9 20 11 8 14 17 8
25 -7 11 -9 11 -14 -2z"/>
<path d="M815 1831 c-3 -5 -1 -12 5 -16 5 -3 10 -1 10 4 0 6 5 11 11 11 6 0 8
-7 4 -17 -5 -14 -3 -15 6 -6 6 6 8 16 5 22 -9 13 -33 14 -41 2z"/>
<path d="M706 1802 c-4 -4 -13 -7 -19 -7 -7 0 -12 -6 -12 -13 0 -7 -6 -17 -14
-21 -8 -6 -12 -18 -8 -31 3 -13 0 -23 -9 -27 -8 -3 -14 -9 -14 -14 0 -4 7 -6
15 -3 8 4 15 1 15 -5 0 -6 -9 -11 -20 -11 -17 0 -19 -2 -8 -14 8 -8 15 -10 19
-4 4 7 9 6 14 -1 8 -13 35 3 35 21 0 6 -7 5 -15 -2 -13 -11 -15 -8 -15 20 0
26 3 30 14 21 10 -9 16 -8 26 4 7 8 16 12 21 9 5 -3 9 -1 9 4 0 9 -37 25 -52
23 -10 -1 -10 13 -2 22 4 3 13 -1 21 -9 8 -8 19 -11 25 -8 7 4 4 10 -6 16 -9
5 -16 14 -16 21 0 7 4 6 10 -3 6 -9 10 -10 10 -3 0 15 -15 25 -24 15z m-6 -69
c0 -6 -9 -11 -20 -10 -11 1 -20 7 -20 14 0 6 9 11 20 10 11 -1 20 -7 20 -14z"/>
<path d="M850 1780 c0 -5 7 -7 15 -4 8 4 15 8 15 10 0 2 -7 4 -15 4 -8 0 -15
-4 -15 -10z"/>
<path d="M830 1750 c0 -5 5 -10 11 -10 5 0 7 5 4 10 -3 6 -8 10 -11 10 -2 0
-4 -4 -4 -10z"/>
<path d="M878 1692 c7 -5 10 -16 6 -25 -3 -9 -10 -14 -15 -11 -5 3 -9 0 -9 -6
0 -7 7 -10 15 -6 8 3 15 1 15 -3 0 -5 -6 -12 -12 -14 -8 -3 -5 -6 5 -6 12 -1
17 5 15 17 -1 9 1 23 6 31 9 13 -8 31 -29 31 -5 0 -4 -4 3 -8z"/>
<path d="M744 1659 c-3 -6 -1 -16 5 -22 8 -8 11 -5 11 11 0 24 -5 28 -16 11z"/>
<path d="M830 1650 c0 -11 4 -20 9 -20 5 0 7 9 4 20 -3 11 -7 20 -9 20 -2 0
-4 -9 -4 -20z"/>
<path d="M701 1630 c0 -8 4 -22 9 -30 12 -18 12 -2 0 25 -6 13 -9 15 -9 5z"/>
<path d="M820 1600 c0 -5 5 -10 10 -10 6 0 10 5 10 10 0 6 -4 10 -10 10 -5 0
-10 -4 -10 -10z"/>
<path d="M800 1570 c0 -5 5 -10 11 -10 5 0 7 5 4 10 -3 6 -8 10 -11 10 -2 0
-4 -4 -4 -10z"/>
<path d="M830 1570 c0 -5 5 -10 11 -10 5 0 7 5 4 10 -3 6 -8 10 -11 10 -2 0
-4 -4 -4 -10z"/>
<path d="M800 1540 c20 -13 33 -13 25 0 -3 6 -14 10 -23 10 -15 0 -15 -2 -2
-10z"/>
<path d="M910 1480 c0 -5 5 -10 11 -10 5 0 7 5 4 10 -3 6 -8 10 -11 10 -2 0
-4 -4 -4 -10z"/>
<path d="M1040 1479 c0 -5 5 -7 10 -4 6 3 10 8 10 11 0 2 -4 4 -10 4 -5 0 -10
-5 -10 -11z"/>
<path d="M890 1450 c0 -5 5 -10 10 -10 6 0 10 5 10 10 0 6 -4 10 -10 10 -5 0
-10 -4 -10 -10z"/>
<path d="M1073 1420 c-3 -11 -10 -17 -17 -13 -6 4 -4 -2 4 -12 14 -17 13 -18
-2 -12 -11 4 -15 2 -12 -6 2 -7 12 -13 22 -13 12 0 17 8 16 26 -1 14 3 31 9
38 6 8 6 12 -3 12 -6 0 -14 -9 -17 -20z"/>
<path d="M933 1424 c-13 -6 -6 -34 8 -34 4 0 13 9 19 20 11 20 2 25 -27 14z"/>
<path d="M1730 1400 c0 -5 5 -10 10 -10 6 0 10 5 10 10 0 6 -4 10 -10 10 -5 0
-10 -4 -10 -10z"/>
<path d="M1670 1390 c0 -6 -11 -10 -25 -10 -14 0 -25 -5 -25 -11 0 -14 52 -2
61 13 4 6 11 8 17 4 6 -3 13 -3 16 2 2 4 -6 9 -20 10 -13 1 -24 -3 -24 -8z"/>
<path d="M1555 1340 c-3 -5 -15 -10 -26 -10 -10 0 -19 -4 -19 -10 0 -5 8 -7
18 -4 14 5 14 4 2 -4 -10 -8 -18 -8 -27 0 -9 7 -13 7 -13 -1 0 -13 0 -13 60
-16 25 -1 39 0 32 2 -6 3 -10 9 -7 14 4 5 -1 6 -9 3 -19 -7 -21 7 -4 24 7 7 9
12 6 12 -4 0 -10 -4 -13 -10z"/>
<path d="M1625 1340 c-3 -5 -1 -10 6 -10 8 0 8 -4 -1 -15 -13 -16 0 -21 16 -6
5 5 18 11 29 14 15 3 13 5 -8 6 -16 0 -26 5 -22 11 3 6 2 10 -4 10 -5 0 -13
-4 -16 -10z"/>
<path d="M1135 1330 c-3 -6 1 -7 9 -4 18 7 21 14 7 14 -6 0 -13 -4 -16 -10z"/>
<path d="M1725 1310 c3 -5 8 -10 11 -10 2 0 4 5 4 10 0 6 -5 10 -11 10 -5 0
-7 -4 -4 -10z"/>
<path d="M895 1290 c2 -11 0 -20 -6 -20 -5 0 -9 -5 -9 -11 0 -5 5 -7 10 -4 6
3 10 1 10 -4 0 -6 -10 -10 -21 -8 -12 1 -24 -3 -26 -9 -2 -7 9 -11 30 -10 23
1 34 6 33 16 -1 8 4 14 9 13 15 -2 17 35 3 43 -7 5 -9 1 -5 -9 3 -10 2 -17 -3
-17 -6 0 -10 6 -10 14 0 8 -4 17 -9 21 -6 3 -8 -4 -6 -15z"/>
<path d="M1140 1299 c0 -5 5 -7 10 -4 6 3 10 8 10 11 0 2 -4 4 -10 4 -5 0 -10
-5 -10 -11z"/>
<path d="M1465 1300 c-3 -5 -1 -10 4 -10 6 0 11 5 11 10 0 6 -2 10 -4 10 -3 0
-8 -4 -11 -10z"/>
<path d="M1695 1300 c3 -5 8 -10 11 -10 2 0 4 5 4 10 0 6 -5 10 -11 10 -5 0
-7 -4 -4 -10z"/>
<path d="M1750 1284 c-14 -35 -13 -39 6 -23 15 12 16 11 9 -11 -4 -14 -13 -28
-19 -32 -7 -5 -5 -8 6 -8 22 0 36 59 17 71 -13 8 -5 13 14 10 4 0 7 4 7 9 0
21 -31 9 -40 -16z"/>
<path d="M1633 1293 c-13 -2 -23 -8 -23 -13 0 -5 15 -4 33 2 52 18 47 22 -10
11z"/>
<path d="M1160 1280 c-13 -8 -13 -10 2 -10 9 0 20 5 23 10 8 13 -5 13 -25 0z"/>
<path d="M1800 1281 c0 -5 -3 -18 -7 -28 -6 -15 -4 -16 9 -6 8 7 18 9 23 5 4
-4 2 3 -4 16 -12 23 -21 29 -21 13z"/>
<path d="M1518 1273 c-10 -2 -18 -9 -18 -14 0 -6 10 -5 23 2 37 20 36 23 -5
12z"/>
<path d="M1660 1274 c0 -10 28 -33 33 -27 3 3 0 12 -8 19 -14 15 -25 18 -25 8z"/>
<path d="M1122 1249 c-14 -22 -7 -25 14 -5 8 8 11 17 6 20 -4 2 -13 -4 -20
-15z"/>
<path d="M1575 1260 c-3 -6 1 -7 9 -4 18 7 21 14 7 14 -6 0 -13 -4 -16 -10z"/>
<path d="M1035 1240 c-15 -17 -16 -20 -3 -15 11 4 18 0 21 -12 2 -10 4 -3 3
14 0 18 -1 33 -2 33 0 0 -9 -9 -19 -20z"/>
<path d="M1547 1254 c-4 -4 -7 -14 -7 -23 0 -11 3 -12 11 -4 6 6 10 16 7 23
-2 6 -7 8 -11 4z"/>
<path d="M935 1230 c3 -5 8 -10 11 -10 2 0 4 5 4 10 0 6 -5 10 -11 10 -5 0 -7
-4 -4 -10z"/>
<path d="M996 1213 c3 -21 2 -33 -5 -33 -6 0 -11 -4 -11 -10 0 -5 4 -10 9 -10
16 0 22 36 11 61 -9 21 -9 20 -4 -8z"/>
<path d="M1077 1220 c4 -14 -2 -27 -17 -40 -13 -11 -20 -23 -17 -27 13 -12 47
30 47 59 0 15 -4 28 -9 28 -5 0 -7 -9 -4 -20z"/>
<path d="M1620 1230 c-21 -7 -21 -8 -5 -9 11 0 27 4 35 9 18 11 5 11 -30 0z"/>
<path d="M1820 1230 c0 -13 11 -13 30 0 12 8 11 10 -7 10 -13 0 -23 -4 -23
-10z"/>
<path d="M1663 1220 c-13 -5 -23 -12 -23 -16 0 -3 7 -4 15 0 9 3 15 0 15 -10
0 -12 4 -12 20 -4 22 12 27 40 8 39 -7 0 -23 -4 -35 -9z"/>
<path d="M1140 1206 c0 -9 5 -16 10 -16 6 0 10 4 10 9 0 6 -4 13 -10 16 -5 3
-10 -1 -10 -9z"/>
<path d="M855 1200 c3 -5 8 -10 11 -10 2 0 4 5 4 10 0 6 -5 10 -11 10 -5 0 -7
-4 -4 -10z"/>
<path d="M880 1200 c0 -5 5 -10 10 -10 6 0 10 5 10 10 0 6 -4 10 -10 10 -5 0
-10 -4 -10 -10z"/>
<path d="M941 1198 c-1 -21 15 -32 25 -17 4 7 3 9 -4 5 -6 -3 -13 2 -15 11 -4
16 -5 16 -6 1z"/>
<path d="M1198 1203 c-24 -6 -23 -23 2 -23 11 0 20 7 20 15 0 8 -1 14 -2 14
-2 -1 -11 -3 -20 -6z"/>
<path d="M1828 1203 c7 -3 16 -2 19 1 4 3 -2 6 -13 5 -11 0 -14 -3 -6 -6z"/>
<path d="M1860 1185 c0 -19 -31 -55 -48 -55 -7 0 -10 -5 -7 -10 3 -6 17 -7 31
-4 31 8 33 -18 2 -38 -19 -13 -21 -18 -10 -31 8 -9 11 -20 8 -25 -3 -5 6 -9
20 -9 17 0 23 4 20 13 -3 7 0 15 7 17 7 2 9 8 4 12 -4 5 -13 0 -21 -10 -12
-17 -13 -17 -18 3 -7 26 31 39 49 16 7 -10 13 -11 18 -5 3 6 3 11 -2 11 -4 0
-1 4 7 10 12 8 12 10 -3 16 -9 3 -14 10 -11 15 3 5 1 9 -5 9 -5 0 -11 -5 -13
-12 -3 -9 -6 -9 -12 1 -5 8 -1 14 13 18 12 3 21 9 21 14 0 5 -11 4 -25 -1 -14
-5 -25 -6 -25 -1 0 21 13 41 26 41 8 0 14 5 14 10 0 6 -9 10 -20 10 -11 0 -20
-7 -20 -15z"/>
<path d="M1606 1178 c7 -11 34 -10 34 1 0 6 -9 9 -19 8 -11 0 -17 -5 -15 -9z"/>
<path d="M1830 1179 c0 -5 5 -7 10 -4 6 3 10 8 10 11 0 2 -4 4 -10 4 -5 0 -10
-5 -10 -11z"/>
<path d="M1130 1169 c0 -5 5 -7 10 -4 6 3 10 8 10 11 0 2 -4 4 -10 4 -5 0 -10
-5 -10 -11z"/>
<path d="M1650 1165 c-43 -16 -63 -18 -55 -5 3 6 0 10 -7 10 -20 0 -58 -29
-57 -43 0 -9 2 -9 6 1 2 6 11 12 18 12 7 0 16 6 18 13 4 9 6 9 6 -1 1 -7 -6
-15 -14 -18 -8 -4 -15 -10 -15 -14 0 -13 34 -6 47 10 9 10 12 11 13 3 0 -15
40 -18 40 -4 0 5 -3 11 -7 14 -5 2 -2 2 5 1 6 -2 12 1 12 6 0 5 9 8 20 7 11
-1 20 -5 20 -9 0 -4 7 -4 17 -1 11 4 14 3 9 -5 -4 -7 -20 -10 -37 -7 -21 4
-29 1 -29 -9 0 -8 -9 -18 -20 -21 -11 -3 -20 -11 -20 -16 0 -12 17 -12 22 0 2
5 17 11 33 13 17 2 36 9 43 16 7 6 20 12 28 12 8 0 14 5 14 11 0 5 -5 7 -12 3
-8 -5 -9 -2 -5 9 5 14 2 16 -18 11 -15 -4 -25 -2 -25 5 0 14 -6 13 -50 -4z"/>
<path d="M1760 1171 c0 -5 7 -12 16 -15 14 -5 15 -4 4 9 -14 17 -20 19 -20 6z"/>
<path d="M920 1156 c0 -8 10 -21 22 -27 14 -8 18 -14 10 -17 -6 -2 -12 -8 -12
-13 0 -4 7 -6 15 -3 9 4 19 -3 26 -20 7 -14 16 -26 21 -26 11 0 10 17 -2 25
-5 3 -10 11 -10 16 0 6 5 7 12 3 19 -12 57 -14 64 -3 3 5 0 8 -7 7 -7 -2 -16
8 -20 22 -4 14 -7 18 -8 9 -1 -11 -10 -16 -26 -16 -23 0 -24 1 -8 13 10 7 16
14 13 14 -8 2 -44 11 -55 13 -5 1 -16 6 -22 10 -8 5 -13 3 -13 -7z"/>
<path d="M1800 1166 c0 -2 7 -9 15 -16 9 -7 15 -8 15 -2 0 5 -7 12 -15 16 -8
3 -15 4 -15 2z"/>
<path d="M1233 1136 c-28 -13 -30 -26 -4 -26 10 0 22 7 25 16 8 21 6 22 -21
10z"/>
<path d="M1289 1123 c-13 -16 -12 -17 4 -4 16 13 21 21 13 21 -2 0 -10 -8 -17
-17z"/>
<path d="M910 1110 c0 -5 5 -10 11 -10 5 0 7 5 4 10 -3 6 -8 10 -11 10 -2 0
-4 -4 -4 -10z"/>
<path d="M1324 1106 c-3 -8 -3 -20 1 -26 4 -6 1 -17 -5 -25 -10 -12 -9 -15 5
-15 14 0 16 6 11 35 -6 31 -5 35 15 35 15 0 19 -5 15 -15 -3 -8 -1 -15 5 -15
6 0 9 8 7 18 -4 22 -46 29 -54 8z"/>
<path d="M1600 1118 c-4 -14 -7 -28 -9 -35 -1 -5 -5 -1 -11 7 -7 12 -12 12
-34 1 -14 -8 -23 -18 -20 -23 3 -4 2 -13 -2 -19 -4 -8 -9 -7 -15 2 -7 11 -9
10 -9 -3 0 -10 7 -18 17 -18 9 0 13 -3 10 -7 -4 -3 -2 -11 3 -18 7 -8 2 -16
-15 -25 -30 -16 -30 -20 -8 -46 13 -17 20 -19 40 -10 12 6 21 16 18 23 -2 7 0
15 5 18 16 10 12 35 -5 35 -8 0 -15 5 -15 10 0 6 5 10 10 10 6 0 10 7 10 16 0
10 5 14 15 10 10 -3 15 -1 14 7 -1 6 1 20 5 29 5 10 6 23 3 30 -3 7 -6 10 -7
6z m-36 -43 c-6 -16 -24 -21 -24 -7 0 11 11 22 21 22 5 0 6 -7 3 -15z m-9 -35
c-3 -5 -10 -10 -16 -10 -5 0 -9 5 -9 10 0 6 7 10 16 10 8 0 12 -4 9 -10z m5
-60 c0 -5 -4 -10 -10 -10 -5 0 -10 5 -10 10 0 6 5 10 10 10 6 0 10 -4 10 -10z
m-33 -20 c-1 -22 -17 -28 -17 -7 0 12 9 27 16 27 2 0 2 -9 1 -20z"/>
<path d="M1746 1111 c-3 -5 5 -8 19 -7 14 0 25 4 25 9 0 10 -38 9 -44 -2z"/>
<path d="M1937 1101 c9 -11 23 -17 32 -15 9 2 3 -2 -14 -10 -24 -12 -26 -15
-10 -16 17 0 17 -2 5 -10 -8 -5 -25 -10 -38 -10 -13 0 -21 -4 -17 -9 8 -14 80
13 80 30 0 8 8 13 17 13 13 -1 15 2 6 16 -6 10 -19 15 -28 13 -10 -3 -21 0
-24 6 -4 6 -11 11 -16 11 -6 0 -2 -9 7 -19z"/>
<path d="M1498 1103 c-10 -2 -18 -10 -18 -16 0 -7 -4 -6 -10 3 -8 12 -10 11
-10 -7 0 -27 -25 -31 -39 -5 -8 13 -9 9 -7 -19 3 -32 36 -99 36 -74 0 6 5 3
10 -5 6 -10 10 -11 10 -2 0 6 5 11 11 10 6 -2 13 3 15 10 1 7 0 8 -3 2 -2 -5
-8 -8 -13 -5 -14 9 10 79 33 97 22 17 18 20 -15 11z m-18 -43 c0 -5 -5 -10
-11 -10 -5 0 -7 5 -4 10 3 6 8 10 11 10 2 0 4 -4 4 -10z m-35 -20 c-3 -5 -1
-10 4 -10 6 0 11 -8 11 -17 0 -15 -2 -14 -15 3 -17 23 -19 34 -4 34 5 0 7 -4
4 -10z"/>
<path d="M1825 1100 c-3 -5 -1 -10 4 -10 6 0 11 5 11 10 0 6 -2 10 -4 10 -3 0
-8 -4 -11 -10z"/>
<path d="M1250 1090 c0 -5 5 -10 10 -10 6 0 10 5 10 10 0 6 -4 10 -10 10 -5 0
-10 -4 -10 -10z"/>
<path d="M1080 1080 c0 -5 5 -10 10 -10 6 0 10 5 10 10 0 6 -4 10 -10 10 -5 0
-10 -4 -10 -10z"/>
<path d="M1282 1075 c-11 -13 -9 -15 8 -15 11 0 20 7 20 15 0 19 -11 19 -28 0z"/>
<path d="M1645 1075 l-30 -14 40 4 c31 4 36 3 20 -5 -34 -17 -80 -33 -87 -32
-5 1 -8 -3 -8 -8 0 -5 9 -10 20 -10 11 0 20 5 20 10 0 6 5 10 10 10 20 0 9
-21 -15 -30 -27 -10 -30 -17 -15 -40 7 -12 12 -12 22 -2 17 17 33 15 18 -3 -7
-9 -10 -18 -6 -22 3 -3 6 -1 6 6 0 7 5 9 10 6 6 -4 10 5 10 20 0 23 -2 24 -21
15 -11 -6 -25 -10 -32 -7 -6 2 14 16 46 31 31 14 57 28 57 31 0 10 -24 55 -29
55 -3 -1 -19 -7 -36 -15z m35 -45 c-8 -5 -18 -6 -24 -3 -5 4 -1 10 10 13 24 9
34 2 14 -10z"/>
<path d="M1721 1081 c-11 -7 -9 -10 7 -15 21 -7 21 -7 1 -27 -10 -10 -19 -24
-19 -30 0 -6 14 4 31 21 18 17 38 29 45 26 18 -7 18 2 0 20 -16 16 -44 18 -65
5z m49 -11 c0 -5 -4 -10 -9 -10 -6 0 -13 5 -16 10 -3 6 1 10 9 10 9 0 16 -4
16 -10z"/>
<path d="M1231 1068 c-1 -10 -5 -18 -11 -18 -5 0 -10 -5 -10 -11 0 -5 4 -8 9
-5 13 9 30 -17 34 -52 6 -54 18 -49 15 6 -2 28 -6 52 -9 52 -3 0 -11 10 -17
23 -8 17 -11 18 -11 5z"/>
<path d="M1038 1063 c-10 -3 -18 -9 -18 -15 0 -5 8 -7 17 -4 9 4 20 1 25 -6 6
-10 8 -9 8 4 0 20 -9 26 -32 21z"/>
<path d="M1360 1040 c0 -5 9 -10 20 -10 11 0 20 5 20 10 0 6 -9 10 -20 10 -11
0 -20 -4 -20 -10z"/>
<path d="M1180 1010 c0 -5 5 -10 11 -10 5 0 7 5 4 10 -3 6 -8 10 -11 10 -2 0
-4 -4 -4 -10z"/>
<path d="M1770 994 c0 -8 5 -12 10 -9 6 4 8 11 5 16 -9 14 -15 11 -15 -7z"/>
<path d="M1130 990 c0 -5 5 -10 11 -10 5 0 7 5 4 10 -3 6 -8 10 -11 10 -2 0
-4 -4 -4 -10z"/>
<path d="M1320 990 c0 -5 5 -10 11 -10 5 0 7 5 4 10 -3 6 -8 10 -11 10 -2 0
-4 -4 -4 -10z"/>
<path d="M1737 993 c-4 -3 -7 -11 -7 -17 0 -6 5 -5 12 2 6 6 9 14 7 17 -3 3
-9 2 -12 -2z"/>
<path d="M2026 978 c-9 -12 -16 -17 -16 -10 0 6 -5 12 -11 12 -5 0 -7 -4 -4
-10 3 -5 1 -10 -6 -10 -8 0 -9 -3 -3 -9 14 -15 64 -2 57 15 -3 8 1 14 10 14 9
0 19 5 22 10 13 21 -35 9 -49 -12z"/>
<path d="M1790 981 c0 -5 11 -8 25 -7 33 1 33 16 0 16 -14 0 -25 -4 -25 -9z"/>
<path d="M1932 970 c-10 -17 -10 -20 3 -20 8 0 15 9 15 20 0 11 -1 20 -3 20
-1 0 -8 -9 -15 -20z"/>
<path d="M2144 970 c0 -22 2 -23 31 -10 17 7 17 9 3 9 -10 1 -18 6 -18 11 0 6
-4 10 -8 10 -4 0 -8 -9 -8 -20z"/>
<path d="M1205 970 c-17 -7 -18 -9 -2 -9 13 -1 16 -7 11 -26 -4 -16 -2 -25 6
-25 7 0 10 7 7 15 -4 8 -2 17 3 20 12 7 13 35 3 34 -5 0 -17 -4 -28 -9z"/>
<path d="M1290 969 c0 -5 5 -7 10 -4 6 3 10 8 10 11 0 2 -4 4 -10 4 -5 0 -10
-5 -10 -11z"/>
<path d="M1397 974 c-3 -3 -3 -13 0 -21 5 -12 7 -12 14 -1 15 23 4 40 -14 22z"/>
<path d="M1680 961 c0 -6 5 -11 11 -11 6 0 9 -7 5 -15 -3 -8 -1 -15 4 -15 6 0
10 5 10 10 0 6 4 10 10 10 5 0 7 -7 4 -15 -4 -11 -2 -13 9 -9 12 4 14 1 10
-15 -4 -16 -1 -19 16 -14 12 3 21 12 21 20 0 8 -4 11 -10 8 -5 -3 -10 -2 -10
4 0 5 6 11 13 14 6 2 9 8 5 12 -4 4 -14 2 -23 -5 -12 -10 -15 -10 -15 3 0 9
-7 14 -17 12 -10 -1 -24 2 -30 8 -9 6 -13 6 -13 -2z"/>
<path d="M2061 954 c0 -11 3 -14 6 -6 3 7 2 16 -1 19 -3 4 -6 -2 -5 -13z"/>
<path d="M1348 953 c7 -3 16 -2 19 1 4 3 -2 6 -13 5 -11 0 -14 -3 -6 -6z"/>
<path d="M1140 940 c0 -5 4 -10 9 -10 6 0 13 5 16 10 3 6 -1 10 -9 10 -9 0
-16 -4 -16 -10z"/>
<path d="M1438 943 c6 -2 18 -2 25 0 6 3 1 5 -13 5 -14 0 -19 -2 -12 -5z"/>
<path d="M2170 939 c0 -5 5 -7 10 -4 6 3 10 8 10 11 0 2 -4 4 -10 4 -5 0 -10
-5 -10 -11z"/>
<path d="M1300 930 c0 -5 4 -10 9 -10 6 0 13 5 16 10 3 6 -1 10 -9 10 -9 0
-16 -4 -16 -10z"/>
<path d="M1362 928 c-7 -7 -12 -21 -11 -32 0 -15 2 -16 6 -6 3 8 12 20 20 27
8 6 10 14 5 17 -5 3 -14 0 -20 -6z"/>
<path d="M1569 920 c-12 -13 -13 -19 -3 -28 19 -18 26 -15 19 8 -5 16 -2 20
14 20 12 0 21 4 21 8 0 14 -34 8 -51 -8z"/>
<path d="M1865 930 c4 -6 11 -8 16 -5 14 9 11 15 -7 15 -8 0 -12 -5 -9 -10z"/>
<path d="M1924 929 c-4 -7 0 -9 14 -5 11 4 23 2 27 -4 3 -5 1 -10 -6 -10 -7 0
-10 -2 -7 -5 3 -3 13 -3 22 1 13 5 14 9 5 20 -14 17 -45 18 -55 3z"/>
<path d="M2015 930 c-19 -8 -19 -9 2 -9 12 -1 25 4 28 9 7 12 -2 12 -30 0z"/>
<path d="M1623 916 c-31 -15 -29 -28 2 -16 14 5 32 7 40 4 11 -5 13 -2 9 10
-7 18 -19 19 -51 2z"/>
<path d="M2063 916 c-13 -6 -23 -16 -23 -23 0 -17 -17 -17 -23 0 -3 9 -8 9
-18 -2 -9 -9 -9 -11 -1 -7 6 4 12 3 12 -3 0 -19 35 -16 45 3 12 23 76 41 86
24 4 -6 15 -8 24 -4 10 3 15 9 12 12 -10 10 -92 10 -114 0z"/>
<path d="M1240 911 c0 -6 5 -13 10 -16 6 -3 10 1 10 9 0 9 -4 16 -10 16 -5 0
-10 -4 -10 -9z"/>
<path d="M1280 898 c0 -16 -4 -28 -10 -28 -5 0 -10 -5 -10 -11 0 -6 9 -8 20
-4 13 4 20 2 20 -7 0 -7 6 -2 13 12 9 17 10 26 3 29 -6 2 -16 11 -23 20 -11
14 -12 12 -13 -11z"/>
<path d="M1463 905 c-12 -9 -33 -14 -45 -12 -13 2 -17 2 -10 0 6 -3 12 -11 12
-19 0 -20 13 -17 30 6 8 11 20 20 27 20 7 0 13 5 13 10 0 13 -2 13 -27 -5z"/>
<path d="M1500 896 c0 -8 4 -17 9 -20 5 -4 7 3 4 14 -6 23 -13 26 -13 6z"/>
<path d="M1200 885 c-8 -9 -8 -15 -2 -15 12 0 26 19 19 26 -2 2 -10 -2 -17
-11z"/>
<path d="M1895 893 c-11 -2 -27 -7 -35 -10 -8 -4 -19 -7 -24 -7 -10 -1 -28
-57 -21 -65 3 -2 5 1 5 7 0 16 25 15 39 -2 12 -14 51 -10 51 5 0 5 5 9 11 9 6
0 9 -9 6 -20 -3 -11 -1 -20 4 -20 5 0 9 6 9 13 1 7 7 4 15 -7 9 -12 22 -17 35
-13 34 9 23 -19 -12 -29 -37 -11 -52 -36 -16 -27 19 5 21 3 11 -8 -18 -18 -16
-34 2 -19 12 10 15 10 15 -3 0 -8 -9 -17 -20 -20 -18 -5 -26 -30 -21 -61 3
-13 -20 -36 -29 -31 -9 6 -25 -14 -17 -21 11 -11 57 17 57 35 0 29 17 35 37
12 12 -15 19 -17 24 -9 5 7 11 9 15 5 4 -3 3 -12 -3 -19 -5 -7 -10 -28 -11
-47 -3 -41 -6 -47 -32 -54 -15 -4 -20 0 -20 14 0 10 -7 19 -15 19 -8 0 -15 5
-15 11 0 6 6 9 14 6 8 -3 17 1 20 9 7 17 1 18 -27 3 -32 -17 -32 -18 -13 -32
16 -12 17 -18 5 -77 -8 -36 -20 -70 -29 -77 -13 -11 -13 -12 3 -13 9 0 17 5
17 10 0 6 7 10 15 10 21 0 19 -5 -10 -34 -14 -14 -25 -20 -25 -13 0 17 -50 38
-68 28 -12 -7 -12 -11 6 -29 12 -12 19 -28 16 -37 -9 -22 18 -19 46 5 13 11
28 20 34 20 6 0 1 -8 -12 -18 -13 -10 -20 -21 -16 -25 11 -10 44 -9 44 3 0 5
6 7 14 4 11 -4 8 -11 -10 -31 -13 -14 -24 -30 -24 -34 0 -5 -11 -11 -25 -15
-32 -8 -27 -28 7 -32 20 -2 25 -7 21 -23 -3 -10 -9 -19 -13 -19 -4 0 -10 -9
-13 -20 -3 -13 0 -20 9 -20 8 0 14 5 14 10 0 6 6 10 14 10 9 0 12 -7 9 -19 -5
-19 21 -36 38 -25 14 8 11 -9 -7 -34 -14 -20 -14 -22 1 -22 8 0 18 7 21 15 4
10 13 13 25 10 15 -5 19 -1 19 15 0 17 5 21 20 17 11 -3 20 -1 20 4 0 6 7 9
16 7 10 -2 19 3 21 10 6 14 -33 17 -42 2 -11 -17 -23 -11 -18 9 3 12 11 17 19
14 8 -3 14 -1 14 5 0 11 37 25 63 22 16 -1 18 8 16 109 -1 105 -2 110 -20 100
-10 -5 -19 -6 -19 -2 0 4 -5 2 -12 -5 -9 -9 -9 -15 0 -24 9 -9 12 -9 12 0 0 7
5 12 12 12 6 0 3 -8 -7 -20 -10 -11 -21 -17 -26 -15 -11 7 -22 -13 -13 -26 4
-8 9 -7 15 2 4 7 11 10 16 6 4 -5 -3 -16 -15 -26 -18 -13 -22 -23 -17 -44 7
-24 16 -32 38 -28 14 2 7 -7 -19 -23 -24 -16 -25 -16 -22 0 2 9 -2 19 -9 21
-7 3 -10 -3 -6 -15 3 -15 -4 -24 -28 -36 -47 -23 -71 -21 -40 4 13 11 29 20
37 20 8 0 14 8 14 17 0 13 -3 14 -12 5 -16 -16 -28 -15 -28 3 0 8 5 15 10 15
6 0 10 4 10 9 0 5 -9 7 -20 4 -11 -3 -20 0 -20 6 0 6 11 13 25 17 14 3 25 10
25 15 0 5 6 6 13 3 8 -3 13 3 13 15 0 19 -1 19 -27 0 -14 -10 -28 -16 -31 -13
-14 13 -32 -32 -29 -73 2 -28 -1 -43 -7 -39 -6 3 -12 0 -15 -6 -2 -7 -8 -10
-12 -6 -5 5 -1 16 8 26 16 18 13 62 -4 62 -5 0 -9 11 -9 23 0 20 5 24 32 24
18 0 34 5 36 11 2 7 9 12 15 12 17 1 63 38 55 45 -3 4 -25 -6 -49 -20 -32 -21
-40 -23 -35 -10 3 9 6 18 6 21 0 2 7 1 15 -2 10 -4 15 0 15 11 0 12 -5 15 -22
10 -16 -6 -20 -4 -15 8 7 19 -26 29 -43 13 -10 -8 -11 -7 -8 4 3 8 13 14 22
14 9 -1 16 3 16 10 0 7 3 7 8 -2 6 -9 12 -6 22 13 14 26 5 50 -10 25 -5 -8
-12 -11 -16 -7 -5 4 5 19 20 34 22 20 30 23 37 12 6 -11 9 -10 15 4 3 9 12 17
20 17 8 0 14 5 14 11 0 5 5 7 10 4 8 -5 7 -11 -1 -21 -15 -19 -4 -31 14 -15
11 9 17 8 27 -4 10 -13 9 -15 -11 -16 -13 -1 -27 -1 -31 0 -14 2 -8 -17 7 -23
20 -7 8 -36 -15 -36 -10 0 -20 3 -23 8 -2 4 -2 2 -1 -5 2 -6 -4 -14 -12 -17
-8 -3 -14 -13 -14 -21 0 -12 6 -15 23 -9 12 3 24 11 25 15 2 5 10 9 17 9 14 0
25 22 25 52 0 14 5 18 15 14 12 -4 14 2 12 29 -1 26 -7 35 -19 35 -10 0 -18 5
-18 10 0 6 6 10 14 10 15 0 32 37 22 47 -3 4 -6 1 -6 -5 0 -7 -17 -20 -37 -30
-21 -9 -41 -21 -45 -27 -4 -5 -6 8 -5 28 2 30 7 39 25 43 12 4 22 11 22 17 0
6 3 7 7 4 3 -4 13 -1 21 6 13 10 15 9 9 -5 -3 -10 -2 -18 3 -18 6 0 10 11 10
24 0 19 -4 22 -25 18 -33 -6 -32 4 3 22 26 15 27 15 3 16 -16 0 -21 4 -17 15
3 9 0 15 -10 15 -8 0 -12 5 -9 10 4 6 11 8 16 5 5 -4 9 -1 9 4 0 14 -15 14
-58 2 -25 -8 -32 -7 -29 2 2 7 11 11 19 9 9 -1 21 5 28 13 7 8 19 15 27 15 12
0 13 3 4 14 -6 8 -10 18 -9 22 2 5 -1 10 -7 11 -5 2 -10 -5 -11 -15 -2 -40 -7
-45 -14 -17 -6 23 -8 25 -9 8 0 -12 -6 -25 -13 -29 -8 -5 -9 0 -5 17 4 13 7
29 7 36 0 7 6 10 14 7 8 -3 17 0 21 6 12 20 -1 21 -44 4 -28 -11 -41 -22 -41
-35 0 -20 -15 -26 -25 -9 -3 6 -2 10 3 10 14 0 24 32 14 42 -5 5 -20 4 -35 -1
-19 -8 -27 -7 -27 1 0 6 -8 17 -17 24 -11 8 -13 13 -5 14 6 0 12 5 12 10 0 7
-7 7 -20 0 -11 -5 -29 -14 -40 -20 -11 -5 -24 -10 -30 -10 -5 0 -10 5 -10 10
0 6 6 10 14 10 8 0 18 5 21 11 5 7 -6 9 -32 5 l-38 -5 35 12 c38 13 81 37 65
36 -5 -1 -19 -3 -30 -6z m175 -133 c0 -5 -4 -10 -10 -10 -5 0 -10 5 -10 10 0
6 5 10 10 10 6 0 10 -4 10 -10z m-60 -19 c0 -6 -4 -13 -10 -16 -5 -3 -10 1
-10 9 0 9 5 16 10 16 6 0 10 -4 10 -9z m60 -8 c0 -5 -5 -15 -10 -23 -8 -12
-10 -11 -10 8 0 12 5 22 10 22 6 0 10 -3 10 -7z m-40 -22 c0 -6 -4 -13 -10
-16 -5 -3 -10 1 -10 9 0 9 5 16 10 16 6 0 10 -4 10 -9z m30 -35 c0 -8 -10 -16
-22 -18 -15 -2 -22 -9 -22 -21 2 -16 0 -17 -15 -4 -9 8 -23 12 -31 9 -12 -3
-12 -1 2 13 9 10 28 18 42 18 14 0 26 3 26 8 0 5 5 9 10 9 6 0 10 -6 10 -14z
m74 -22 c17 -17 22 -39 7 -29 -5 3 -11 -7 -13 -22 -2 -21 -8 -28 -23 -26 -23
2 -55 -14 -55 -27 0 -5 7 -7 15 -4 10 4 15 0 15 -14 0 -15 -6 -20 -20 -19 -29
2 -24 67 5 67 8 0 10 9 7 25 -3 16 -11 25 -24 25 -10 0 -17 4 -13 10 3 5 12 7
20 3 8 -3 15 0 15 5 0 9 14 16 42 21 4 0 14 -6 22 -15z m-84 -174 c0 -5 -4
-10 -10 -10 -5 0 -10 5 -10 10 0 6 5 10 10 10 6 0 10 -4 10 -10z m-46 -44 c-8
-40 -10 -43 -34 -49 -26 -7 -26 9 0 23 12 6 18 16 13 23 -5 8 -8 8 -11 -1 -7
-21 -22 -13 -22 11 0 20 5 24 30 24 29 0 30 -2 24 -31z m173 -168 c-3 -8 -6
-5 -6 6 -1 11 2 17 5 13 3 -3 4 -12 1 -19z m-4 -57 c-3 -13 -11 -17 -24 -14
-10 3 -19 10 -19 15 0 6 7 8 15 4 8 -3 15 -1 15 4 0 6 4 10 9 10 5 0 7 -8 4
-19z m-118 -140 c-3 -6 -11 -11 -17 -11 -6 0 -6 6 2 15 14 17 26 13 15 -4z"/>
<path d="M2095 650 c-19 -7 -19 -8 -2 -15 19 -8 31 -2 26 13 -2 5 -13 6 -24 2z"/>
<path d="M2090 610 c-13 -9 -13 -11 0 -19 10 -7 17 -6 22 2 17 26 5 35 -22 17z"/>
<path d="M2093 893 c-13 -2 -23 -8 -23 -12 0 -5 11 -6 25 -3 14 2 25 8 25 13
0 5 -1 8 -2 8 -2 -1 -13 -4 -25 -6z"/>
<path d="M2155 880 c-3 -5 -1 -10 4 -10 6 0 11 5 11 10 0 6 -2 10 -4 10 -3 0
-8 -4 -11 -10z"/>
<path d="M1765 870 c-3 -5 -1 -10 4 -10 6 0 11 5 11 10 0 6 -2 10 -4 10 -3 0
-8 -4 -11 -10z"/>
<path d="M1655 861 c19 -8 19 -8 0 -19 -11 -6 -15 -12 -8 -12 6 0 9 -9 5 -22
-4 -15 -2 -19 7 -14 7 5 22 9 34 10 17 2 22 -3 23 -21 2 -18 -5 -25 -30 -31
-29 -8 -54 -4 -30 5 6 2 20 10 30 18 18 13 17 14 -6 8 -14 -3 -31 -10 -37 -16
-10 -7 -13 -1 -14 24 -1 19 -3 26 -6 16 -4 -17 -6 -16 -24 4 -14 16 -22 20
-30 12 -13 -13 -2 -36 12 -28 5 4 9 2 9 -4 0 -5 -9 -13 -20 -16 -34 -11 -22
-24 12 -14 40 11 38 11 38 -1 0 -5 -6 -10 -14 -10 -8 0 -18 -5 -22 -12 -5 -8
-2 -9 9 -5 10 4 24 10 32 13 10 4 15 0 15 -10 0 -9 6 -16 14 -16 10 0 12 -7 8
-22 -3 -14 -2 -19 6 -14 7 4 12 16 12 26 0 10 4 21 9 24 8 5 3 -24 -14 -81 -5
-14 -3 -23 4 -23 6 0 11 9 11 20 0 11 7 20 15 20 13 0 14 -4 5 -21 -10 -18
-10 -19 8 -10 11 6 22 7 26 4 3 -3 6 -2 6 4 0 6 11 14 25 17 27 7 30 13 16 35
-5 8 -16 11 -30 6 -12 -3 -18 -11 -15 -17 4 -6 9 -5 15 3 4 7 11 10 14 7 10
-10 -2 -25 -25 -31 -15 -4 -20 0 -20 15 0 18 -2 19 -16 7 -14 -12 -16 -11 -13
6 3 11 10 21 17 21 6 1 14 3 17 4 3 1 9 3 14 4 18 2 24 16 8 16 -9 0 -17 5
-17 10 0 15 21 12 42 -7 11 -9 18 -11 18 -5 0 7 7 12 15 12 8 0 15 -4 15 -10
0 -5 -4 -10 -10 -10 -5 0 -10 -4 -10 -10 0 -21 20 -9 26 15 3 14 12 25 20 25
8 0 14 5 14 11 0 7 -10 9 -25 7 -16 -4 -25 0 -28 11 -3 11 -8 7 -17 -14 -7
-17 -14 -24 -17 -17 -3 6 -16 12 -29 12 -20 0 -24 5 -24 29 0 26 -3 28 -30 25
-42 -5 -38 12 5 20 19 4 35 11 35 16 0 5 -11 4 -25 -2 -19 -9 -28 -9 -37 0 -7
7 -19 12 -27 11 -11 0 -10 -3 4 -8z m75 -115 c0 -3 -4 -8 -10 -11 -5 -3 -10
-1 -10 4 0 6 5 11 10 11 6 0 10 -2 10 -4z"/>
<path d="M2098 863 c6 -2 18 -2 25 0 6 3 1 5 -13 5 -14 0 -19 -2 -12 -5z"/>
<path d="M1170 849 c0 -5 5 -7 10 -4 6 3 10 8 10 11 0 2 -4 4 -10 4 -5 0 -10
-5 -10 -11z"/>
<path d="M1550 851 c0 -5 9 -7 20 -4 11 3 20 7 20 9 0 2 -9 4 -20 4 -11 0 -20
-4 -20 -9z"/>
<path d="M2006 841 c4 -16 3 -21 -5 -17 -6 4 -11 2 -11 -3 0 -6 4 -11 9 -11
17 0 22 19 11 37 -9 15 -10 14 -4 -6z"/>
<path d="M2055 849 c-11 -17 1 -21 15 -4 8 9 8 15 2 15 -6 0 -14 -5 -17 -11z"/>
<path d="M2168 853 c7 -3 16 -2 19 1 4 3 -2 6 -13 5 -11 0 -14 -3 -6 -6z"/>
<path d="M1325 840 c3 -5 11 -10 16 -10 6 0 7 5 4 10 -3 6 -11 10 -16 10 -6 0
-7 -4 -4 -10z"/>
<path d="M1435 840 c3 -5 10 -10 16 -10 5 0 9 5 9 10 0 6 -7 10 -16 10 -8 0
-12 -4 -9 -10z"/>
<path d="M1605 840 c-3 -5 -2 -10 4 -10 5 0 13 5 16 10 3 6 2 10 -4 10 -5 0
-13 -4 -16 -10z"/>
<path d="M2101 836 c-13 -7 -19 -16 -14 -19 11 -7 51 18 43 26 -3 3 -16 0 -29
-7z"/>
<path d="M1751 818 c-11 -30 -5 -36 16 -15 12 12 13 17 5 17 -7 0 -10 5 -7 10
3 6 4 10 0 10 -3 0 -9 -10 -14 -22z"/>
<path d="M2175 820 c-3 -5 -1 -10 4 -10 6 0 11 5 11 10 0 6 -2 10 -4 10 -3 0
-8 -4 -11 -10z"/>
<path d="M2045 810 c-3 -5 -2 -10 4 -10 5 0 13 5 16 10 3 6 2 10 -4 10 -5 0
-13 -4 -16 -10z"/>
<path d="M2145 800 c3 -5 8 -10 11 -10 2 0 4 5 4 10 0 6 -5 10 -11 10 -5 0 -7
-4 -4 -10z"/>
<path d="M1400 790 c-9 -6 -10 -10 -3 -10 6 0 15 5 18 10 8 12 4 12 -15 0z"/>
<path d="M1515 789 c-11 -17 1 -21 15 -4 8 9 8 15 2 15 -6 0 -14 -5 -17 -11z"/>
<path d="M2173 789 c-13 -13 -6 -39 9 -39 7 0 6 5 -1 13 -8 10 -7 17 1 25 7 7
10 12 7 12 -3 0 -10 -5 -16 -11z"/>
<path d="M1440 765 c-7 -8 -9 -15 -6 -15 4 0 14 7 22 15 9 8 11 15 6 15 -5 0
-15 -7 -22 -15z"/>
<path d="M1496 723 c-6 -14 -5 -15 5 -6 7 7 10 15 7 18 -3 3 -9 -2 -12 -12z"/>
<path d="M1903 732 c-12 -2 -24 -10 -27 -18 -5 -12 -1 -14 17 -9 43 14 51 34
10 27z"/>
<path d="M1545 719 c-9 -14 -2 -20 14 -10 8 6 9 11 3 15 -6 3 -14 1 -17 -5z"/>
<path d="M2175 720 c-3 -5 -1 -10 4 -10 6 0 11 5 11 10 0 6 -2 10 -4 10 -3 0
-8 -4 -11 -10z"/>
<path d="M1371 703 c0 -13 -8 -23 -16 -23 -17 0 -19 -9 -6 -28 13 -21 33 12
28 45 -3 22 -4 23 -6 6z"/>
<path d="M1430 705 c0 -8 5 -15 10 -15 6 0 10 7 10 15 0 8 -4 15 -10 15 -5 0
-10 -7 -10 -15z"/>
<path d="M1846 701 c-4 -7 -5 -15 -2 -18 9 -9 19 4 14 18 -4 11 -6 11 -12 0z"/>
<path d="M1936 693 c-6 -14 -5 -15 5 -6 7 7 10 15 7 18 -3 3 -9 -2 -12 -12z"/>
<path d="M1535 660 c3 -5 8 -10 11 -10 2 0 4 5 4 10 0 6 -5 10 -11 10 -5 0 -7
-4 -4 -10z"/>
<path d="M1591 654 c0 -11 3 -14 6 -6 3 7 2 16 -1 19 -3 4 -6 -2 -5 -13z"/>
<path d="M1799 647 c-11 -20 -11 -21 4 -8 17 14 21 10 18 -21 -1 -10 3 -18 8
-18 6 0 11 13 11 29 0 37 -26 48 -41 18z"/>
<path d="M1908 659 c-10 -5 -18 -15 -18 -22 0 -8 3 -7 9 2 5 7 14 10 20 7 6
-4 11 0 11 8 0 19 0 18 -22 5z"/>
<path d="M1373 636 c-30 -14 -29 -31 2 -31 19 0 25 5 25 23 0 12 -1 21 -2 21
-2 -1 -13 -6 -25 -13z"/>
<path d="M1421 633 c7 -10 14 -20 16 -22 1 -2 1 6 0 18 -1 11 -8 21 -15 21
-12 0 -12 -3 -1 -17z"/>
<path d="M1760 628 c0 -13 -5 -30 -11 -38 -8 -12 -9 -9 -5 13 7 30 1 34 -20
13 -16 -17 -10 -42 14 -51 13 -5 14 -8 3 -14 -7 -5 -11 -15 -8 -22 3 -9 11 1
21 23 11 26 21 36 31 32 9 -4 15 0 15 10 0 10 -5 13 -17 9 -13 -5 -15 -2 -11
15 4 12 2 25 -3 28 -5 3 -9 -5 -9 -18z"/>
<path d="M1861 634 c0 -11 3 -14 6 -6 3 7 2 16 -1 19 -3 4 -6 -2 -5 -13z"/>
<path d="M1490 624 c0 -14 3 -14 15 -4 8 7 15 14 15 16 0 2 -7 4 -15 4 -8 0
-15 -7 -15 -16z"/>
<path d="M1540 630 c-13 -8 -13 -10 2 -10 9 0 20 5 23 10 8 13 -5 13 -25 0z"/>
<path d="M1917 623 c-4 -3 -7 -11 -7 -17 0 -6 5 -5 12 2 6 6 9 14 7 17 -3 3
-9 2 -12 -2z"/>
<path d="M1565 600 c-10 -11 -13 -20 -7 -20 6 0 16 9 22 20 6 11 9 20 7 20 -2
0 -12 -9 -22 -20z"/>
<path d="M1865 600 c3 -5 10 -10 16 -10 5 0 9 5 9 10 0 6 -7 10 -16 10 -8 0
-12 -4 -9 -10z"/>
<path d="M1970 600 c0 -5 5 -10 10 -10 6 0 10 5 10 10 0 6 -4 10 -10 10 -5 0
-10 -4 -10 -10z"/>
<path d="M1308 570 c-15 -4 -29 -5 -32 -2 -3 3 -6 0 -6 -7 0 -7 6 -11 14 -8 7
3 18 1 24 -5 12 -12 42 5 42 23 0 10 -5 10 -42 -1z"/>
<path d="M1415 570 c-3 -5 -2 -10 4 -10 5 0 13 5 16 10 3 6 2 10 -4 10 -5 0
-13 -4 -16 -10z"/>
<path d="M1665 570 c3 -5 8 -10 11 -10 2 0 4 5 4 10 0 6 -5 10 -11 10 -5 0 -7
-4 -4 -10z"/>
<path d="M1793 570 c-13 -5 -23 -15 -23 -22 0 -10 3 -9 9 1 5 8 16 11 24 8 9
-3 18 1 21 9 6 16 1 17 -31 4z"/>
<path d="M2001 564 c0 -11 3 -14 6 -6 3 7 2 16 -1 19 -3 4 -6 -2 -5 -13z"/>
<path d="M1875 559 c-4 -6 -5 -12 -2 -15 2 -3 7 2 10 11 7 17 1 20 -8 4z"/>
<path d="M1370 550 c0 -5 5 -10 11 -10 5 0 7 5 4 10 -3 6 -8 10 -11 10 -2 0
-4 -4 -4 -10z"/>
<path d="M2147 553 c-4 -3 -7 -11 -7 -17 0 -6 5 -5 12 2 6 6 9 14 7 17 -3 3
-9 2 -12 -2z"/>
<path d="M1810 532 c-37 -19 -51 -42 -25 -42 9 0 19 9 22 20 3 11 10 20 15 20
5 0 6 -9 3 -20 -9 -30 4 -24 16 6 13 35 9 37 -31 16z"/>
<path d="M1883 523 c-10 -10 -14 -15 -8 -11 7 4 14 5 17 2 3 -2 8 2 11 11 8
19 4 19 -20 -2z"/>
<path d="M1987 526 c-3 -8 -2 -18 3 -21 13 -8 24 15 12 27 -6 6 -11 4 -15 -6z"/>
<path d="M2110 524 c0 -8 5 -12 10 -9 6 3 10 10 10 16 0 5 -4 9 -10 9 -5 0
-10 -7 -10 -16z"/>
<path d="M1233 515 c-7 -8 -13 -19 -13 -25 0 -17 21 -7 38 18 12 18 12 22 1
22 -8 -1 -20 -7 -26 -15z"/>
<path d="M1415 520 c-3 -5 -1 -10 4 -10 6 0 11 5 11 10 0 6 -2 10 -4 10 -3 0
-8 -4 -11 -10z"/>
<path d="M1920 500 c-8 -5 -29 -14 -47 -20 -22 -8 -31 -18 -30 -31 1 -19 2
-19 18 2 10 13 19 18 23 11 3 -6 2 -13 -4 -17 -18 -11 -11 -23 10 -18 22 6 26
-7 8 -25 -6 -6 -8 -15 -4 -19 4 -4 11 -1 16 7 13 20 13 70 0 70 -5 0 -10 4
-10 10 0 5 6 7 14 4 7 -3 16 3 20 12 8 21 5 24 -14 14z"/>
<path d="M1385 490 c3 -5 12 -7 20 -3 21 7 19 13 -6 13 -11 0 -18 -4 -14 -10z"/>
<path d="M1583 487 c2 -7 10 -12 18 -12 21 0 22 -30 1 -41 -14 -6 -18 -15 -13
-28 7 -19 8 -19 28 1 11 11 27 22 36 26 9 3 17 12 16 19 0 10 -2 10 -6 1 -2
-7 -11 -13 -19 -13 -7 0 -11 6 -8 13 5 15 -19 40 -43 43 -8 1 -12 -3 -10 -9z"/>
<path d="M1803 470 c-13 -5 -23 -16 -23 -24 0 -11 5 -12 25 -3 14 7 25 18 25
25 0 6 -1 12 -2 11 -2 0 -13 -4 -25 -9z"/>
<path d="M1210 450 c0 -5 5 -10 11 -10 5 0 7 5 4 10 -3 6 -8 10 -11 10 -2 0
-4 -4 -4 -10z"/>
<path d="M1249 443 c-8 -9 -2 -11 27 -10 21 2 39 7 41 12 5 15 -56 13 -68 -2z"/>
<path d="M2095 447 c-4 -10 -5 -21 -1 -24 10 -10 18 4 13 24 -4 17 -4 17 -12
0z"/>
<path d="M1166 431 c-4 -7 -5 -15 -2 -18 9 -9 19 4 14 18 -4 11 -6 11 -12 0z"/>
<path d="M1511 427 c-6 -8 -8 -17 -4 -20 3 -4 1 -7 -4 -7 -6 0 -10 -7 -9 -15
3 -18 16 -32 16 -17 0 6 9 20 21 31 12 11 18 24 14 30 -8 15 -20 14 -34 -2z"/>
<path d="M2060 415 c0 -8 2 -15 4 -15 2 0 6 7 10 15 3 8 1 15 -4 15 -6 0 -10
-7 -10 -15z"/>
<path d="M2170 385 c0 -8 2 -15 4 -15 2 0 6 7 10 15 3 8 1 15 -4 15 -6 0 -10
-7 -10 -15z"/>
<path d="M2046 374 c-9 -22 3 -32 14 -14 12 19 12 30 1 30 -5 0 -12 -7 -15
-16z"/>
<path d="M1555 370 c-3 -5 1 -10 9 -10 9 0 16 5 16 10 0 6 -4 10 -9 10 -6 0
-13 -4 -16 -10z"/>
<path d="M1612 360 c0 -14 2 -19 5 -12 2 6 2 18 0 25 -3 6 -5 1 -5 -13z"/>
<path d="M1190 346 c0 -8 -3 -16 -7 -19 -5 -2 -3 -2 4 -1 9 2 11 -6 6 -26 -7
-37 3 -38 33 -2 25 28 31 52 14 52 -5 0 -10 -4 -10 -10 0 -5 -7 -10 -16 -10
-8 0 -13 4 -9 9 3 5 1 12 -5 16 -5 3 -10 0 -10 -9z"/>
<path d="M1760 330 c0 -5 5 -10 10 -10 6 0 10 5 10 10 0 6 -4 10 -10 10 -5 0
-10 -4 -10 -10z"/>
<path d="M1628 313 c-3 -12 -1 -26 5 -32 15 -15 32 -14 19 2 -5 6 -12 21 -14
32 -4 19 -4 19 -10 -2z"/>
<path d="M1558 282 c-1 -4 -16 -18 -33 -31 -33 -26 -34 -26 45 -7 24 6 24 6 3
-3 -27 -12 -31 -25 -5 -19 10 3 23 -1 30 -9 7 -7 18 -11 23 -7 5 3 16 0 24 -6
8 -7 15 -10 15 -7 0 12 -65 67 -79 67 -8 0 -11 6 -7 15 5 15 -9 22 -16 7z"/>
<path d="M1060 257 c0 -7 4 -18 9 -26 7 -11 11 -10 20 7 9 16 7 21 -9 25 -12
3 -20 0 -20 -6z"/>
<path d="M1810 231 c0 -12 5 -21 10 -21 6 0 10 6 10 14 0 8 -4 18 -10 21 -5 3
-10 -3 -10 -14z"/>
<path d="M1113 232 c-7 -4 -9 -12 -5 -17 8 -12 42 -16 42 -5 0 14 -26 29 -37
22z"/>
<path d="M1752 233 c-6 -2 -10 -8 -7 -13 2 -4 -4 -15 -15 -25 -27 -24 -26 -55
1 -55 18 0 19 -2 9 -15 -10 -12 -10 -15 2 -15 23 0 28 11 17 33 -6 11 -7 22
-3 26 7 4 17 74 10 70 0 0 -7 -3 -14 -6z"/>
<path d="M1880 226 c0 -8 -6 -17 -12 -19 -7 -3 3 -5 22 -5 19 0 29 2 23 5 -7
2 -13 11 -13 19 0 8 -4 14 -10 14 -5 0 -10 -6 -10 -14z"/>
<path d="M1672 213 c2 -9 9 -18 17 -21 10 -3 12 0 8 11 -3 9 -1 18 6 21 7 2 2
5 -11 5 -17 1 -23 -4 -20 -16z"/>
<path d="M1495 210 c-3 -5 -2 -10 4 -10 5 0 13 5 16 10 3 6 2 10 -4 10 -5 0
-13 -4 -16 -10z"/>
<path d="M2081 204 c0 -11 3 -14 6 -6 3 7 2 16 -1 19 -3 4 -6 -2 -5 -13z"/>
<path d="M1295 200 c-3 -5 -1 -10 4 -10 6 0 11 5 11 10 0 6 -2 10 -4 10 -3 0
-8 -4 -11 -10z"/>
<path d="M1843 183 c9 -2 23 -2 30 0 6 3 -1 5 -18 5 -16 0 -22 -2 -12 -5z"/>
<path d="M850 171 c0 -5 7 -12 16 -15 24 -9 27 -7 10 9 -17 17 -26 19 -26 6z"/>
<path d="M1457 160 c-5 -21 1 -25 18 -12 16 11 16 32 1 32 -7 0 -16 -9 -19
-20z"/>
<path d="M1515 160 c-3 -5 -1 -10 4 -10 6 0 11 5 11 10 0 6 -2 10 -4 10 -3 0
-8 -4 -11 -10z"/>
<path d="M1385 150 c3 -5 10 -10 16 -10 5 0 9 5 9 10 0 6 -7 10 -16 10 -8 0
-12 -4 -9 -10z"/>
<path d="M805 126 c0 -18 3 -22 13 -14 9 8 9 14 1 24 -15 18 -14 18 -14 -10z"/>
<path d="M1433 117 c-13 -5 -23 -16 -23 -23 0 -7 -6 -15 -12 -17 -10 -4 -10
-6 -1 -6 13 -1 69 47 62 53 -2 2 -14 -1 -26 -7z"/>
<path d="M1782 110 c-11 -19 -10 -20 20 -19 18 0 27 3 21 6 -7 2 -13 11 -13
19 0 20 -13 17 -28 -6z"/>
<path d="M2153 83 c-16 -33 -17 -53 -3 -53 6 0 10 11 10 25 0 14 4 25 9 25 5
0 7 -16 5 -36 -3 -23 -1 -33 6 -29 13 8 9 95 -5 95 -5 0 -16 -12 -22 -27z"/>
<path d="M1610 92 c8 -4 15 -13 16 -19 2 -28 4 -33 13 -33 13 0 10 43 -4 52
-5 4 -17 7 -25 7 -13 0 -13 -1 0 -7z"/>
<path d="M20 80 c8 -5 20 -10 25 -10 6 0 3 5 -5 10 -8 5 -19 10 -25 10 -5 0
-3 -5 5 -10z"/>
<path d="M695 82 c-14 -10 -17 -39 -5 -47 5 -3 11 -1 11 4 3 21 4 26 12 39 9
13 -2 16 -18 4z"/>
<path d="M588 73 c7 -3 16 -2 19 1 4 3 -2 6 -13 5 -11 0 -14 -3 -6 -6z"/>
<path d="M750 70 c0 -5 5 -10 10 -10 6 0 10 5 10 10 0 6 -4 10 -10 10 -5 0
-10 -4 -10 -10z"/>
<path d="M1238 73 c7 -3 16 -2 19 1 4 3 -2 6 -13 5 -11 0 -14 -3 -6 -6z"/>
<path d="M1508 73 c7 -3 16 -2 19 1 4 3 -2 6 -13 5 -11 0 -14 -3 -6 -6z"/>
<path d="M1755 70 c-3 -5 3 -10 14 -10 12 0 21 5 21 10 0 6 -6 10 -14 10 -8 0
-18 -4 -21 -10z"/>
<path d="M1557 59 c8 -8 16 -8 30 0 16 9 14 10 -11 11 -22 0 -27 -3 -19 -11z"/>
<path d="M2116 38 c-4 -9 -5 -22 -1 -28 8 -13 45 -13 45 0 0 6 -6 10 -14 10
-8 0 -16 8 -19 18 -4 16 -4 16 -11 0z"/>
<path d="M1273 25 c-3 -9 -3 -18 -1 -21 3 -3 8 4 11 16 6 23 -1 27 -10 5z"/>
<path d="M1808 33 c7 -3 16 -2 19 1 4 3 -2 6 -13 5 -11 0 -14 -3 -6 -6z"/>
<path d="M2062 15 c-11 -13 -10 -15 7 -15 10 0 21 7 25 15 7 19 -15 19 -32 0z"/>
<path d="M440 10 c0 -5 5 -10 10 -10 6 0 10 5 10 10 0 6 -4 10 -10 10 -5 0
-10 -4 -10 -10z"/>
<path d="M550 9 c0 -5 5 -7 10 -4 6 3 10 8 10 11 0 2 -4 4 -10 4 -5 0 -10 -5
-10 -11z"/>
<path d="M1785 10 c-3 -5 3 -10 15 -10 12 0 18 5 15 10 -3 6 -10 10 -15 10 -5
0 -12 -4 -15 -10z"/>
<path d="M1838 3 c7 -3 16 -2 19 1 4 3 -2 6 -13 5 -11 0 -14 -3 -6 -6z"/>
</g>
</svg>
